<svg xmlns="http://www.w3.org/2000/svg" width="301.601" height="139.294" viewBox="0 0 301.601 139.294">
  <g id="Group_131" data-name="Group 131" transform="translate(-37.399 -3139.825)">
    <g id="Group_130" data-name="Group 130">
      <ellipse id="Ellipse_9" data-name="Ellipse 9" cx="60.339" cy="60.339" rx="60.339" ry="60.339" transform="translate(122.032 3158.441)" fill="#5b184a"/>
      <path id="Path_141" data-name="Path 141" d="M849.894,4118.9l-60.335.7a60.348,60.348,0,0,0,3.675,20.05Z" transform="translate(-667.523 -900.114)" fill="#f05b5d"/>
      <path id="Path_142" data-name="Path 142" d="M853.6,4118.9l-56.659,20.749q.529,1.445,1.131,2.861t1.276,2.8Z" transform="translate(-671.225 -900.114)" fill="#a07996"/>
      <text id="_469_PHYSICAL VIOLENCE" data-name="469

PHYSICAL VIOLENCE" transform="translate(38.58 3151.825)" fill="#5b184a" font-size="12" font-family="Montserratarm-Black, Montserrat arm" font-weight="800" letter-spacing="0.019em"><tspan x="0" y="0">469</tspan><tspan font-size="6" font-family="Montserratarm-Medium, Montserrat arm" font-weight="500"><tspan x="0" y="7"></tspan><tspan x="0" y="14">PHYSICAL VIOLENCE</tspan></tspan></text>
      <text id="_14_PSYCHOLOGICAL_VIOLENCE" data-name="14
PSYCHOLOGICAL
VIOLENCE" transform="translate(38.399 3205.751)" fill="#f05b5d" font-size="12" font-family="Montserratarm-Black, Montserrat arm" font-weight="800" letter-spacing="0.019em"><tspan x="0" y="0">14</tspan><tspan font-size="6" font-family="Montserratarm-Medium, Montserrat arm" font-weight="500" letter-spacing="0.02em"><tspan x="0" y="7">PSYCHOLOGICAL</tspan></tspan><tspan font-size="6" font-family="Montserratarm-Medium, Montserrat arm" font-weight="500"><tspan x="0" y="14">VIOLENCE</tspan></tspan></text>
      <path id="Path_143" data-name="Path 143" d="M621.743,4128.083h76.385l10.14-3.576" transform="translate(-583.321 -902.93)" fill="none" stroke="#f05b5d" stroke-miterlimit="10" stroke-width="2"/>
      <path id="Path_144" data-name="Path 144" d="M710.726,4165.532l-19.268,8.417H621.743" transform="translate(-583.321 -922.518)" fill="none" stroke="#a07996" stroke-miterlimit="10" stroke-width="2"/>
      <text id="_2_ECONOMIC_VIOLENCE" data-name="2

ECONOMIC 
VIOLENCE" transform="translate(38.421 3245.224)" fill="#ad8ba4" font-size="12" font-family="Montserratarm-Black, Montserrat arm" font-weight="800" letter-spacing="0.019em"><tspan x="0" y="0">2</tspan><tspan font-size="6" font-family="Montserratarm-Medium, Montserrat arm" font-weight="500"><tspan x="0" y="7"></tspan><tspan x="0" y="14">ECONOMIC </tspan><tspan x="0" y="21">VIOLENCE</tspan></tspan></text>
      <path id="Path_145" data-name="Path 145" d="M621.743,3993.627H722.979l22.917,23.281" transform="translate(-583.321 -837.261)" fill="none" stroke="#5b184a" stroke-miterlimit="10" stroke-width="2"/>
      <path id="Path_140" data-name="Path 140" d="M877.956,4032.069a44.039,44.039,0,1,1-54.13,30.805A44.04,44.04,0,0,1,877.956,4032.069Z" transform="translate(-683.922 -855.755)" fill="#fff"/>
      <text id="_485_INVESTIGATED_CASES" data-name="485 
INVESTIGATED
CASES" transform="translate(161.43 3213.906)" fill="#5b184a" font-size="12" font-family="Montserratarm-Black, Montserrat arm" font-weight="800" letter-spacing="0.019em"><tspan x="0" y="0">485</tspan><tspan y="0" font-size="6"> </tspan><tspan font-size="6" font-family="Montserratarm-Medium, Montserrat arm" font-weight="500"><tspan x="0" y="7">INVESTIGATED</tspan><tspan x="0" y="14">CASES</tspan></tspan></text>
    </g>
    <rect id="Rectangle_67" data-name="Rectangle 67" width="301" height="139" transform="translate(38 3140)" fill="none"/>
  </g>
</svg>
