<svg xmlns="http://www.w3.org/2000/svg" width="301.456" height="178.143" viewBox="0 0 301.456 178.143">
  <g id="Group_132" data-name="Group 132" transform="translate(-39.069 -3306.037)">
    <g id="Group_80" data-name="Group 80" transform="translate(122.33 3326.23)">
      <g id="Group_45" data-name="Group 45" transform="translate(59.921 22.844)">
        <g id="Group_44" data-name="Group 44">
          <path id="Path_123" data-name="Path 123" d="M1348.056,4081.5l59.238,9.149a57.856,57.856,0,0,0-12.146-46.234Z" transform="translate(-1348.056 -4044.417)" fill="#f05b5d"/>
        </g>
      </g>
      <g id="Group_47" data-name="Group 47" transform="translate(59.945 0.03)">
        <g id="Group_46" data-name="Group 46">
          <path id="Path_124" data-name="Path 124" d="M1348.1,4058.542l47.052-37.133a58.2,58.2,0,0,0-45.254-22.78Z" transform="translate(-1348.104 -3998.629)" fill="#f69584"/>
        </g>
      </g>
      <g id="Group_49" data-name="Group 49" transform="translate(59.941 59.941)">
        <g id="Group_48" data-name="Group 48">
          <path id="Path_125" data-name="Path 125" d="M1348.1,4118.871l40.2,44.46a58.2,58.2,0,0,0,19.02-35.207Z" transform="translate(-1348.096 -4118.871)" fill="#b292aa"/>
        </g>
      </g>
      <g id="Group_51" data-name="Group 51" transform="translate(59.941 59.941)">
        <g id="Group_50" data-name="Group 50">
          <path id="Path_126" data-name="Path 126" d="M1348.1,4118.871l32.752,50.2a54.819,54.819,0,0,0,7.45-5.742Z" transform="translate(-1348.096 -4118.871)" fill="#8b5b7e"/>
        </g>
      </g>
      <g id="Group_53" data-name="Group 53" transform="translate(0)">
        <g id="Group_52" data-name="Group 52">
          <path id="Path_127" data-name="Path 127" d="M1287.734,4058.509l1.966-59.908a59.94,59.94,0,1,0-3.931,119.816,57.107,57.107,0,0,0,34.717-9.707Z" transform="translate(-1227.793 -3998.568)" fill="#5b184a"/>
        </g>
      </g>
    </g>
    <text id="_329_BY_THE_HUSBAND_TOWARDS_THE_WIFE" data-name="329

BY THE HUSBAND 
TOWARDS THE
WIFE" transform="translate(39.069 3320.328)" fill="#5b184a" font-size="12" font-family="Montserratarm-Black, Montserrat arm" font-weight="800" letter-spacing="0.019em"><tspan x="0" y="0">329</tspan><tspan x="0" y="7"></tspan><tspan font-size="6" font-family="Montserratarm-Medium, Montserrat arm" font-weight="500"><tspan x="0" y="14">BY THE HUSBAND </tspan><tspan x="0" y="21">TOWARDS THE</tspan><tspan x="0" y="28">WIFE</tspan></tspan></text>
    <path id="Path_146" data-name="Path 146" d="M1169.841,4015.949l-15.6-20.4h-93.556" transform="translate(-1021.617 -670.824)" fill="none" stroke="#5b184a" stroke-miterlimit="10" stroke-width="2"/>
    <path id="Path_147" data-name="Path 147" d="M1531.883,3993.305H1410.73l-9.383,10.736" transform="translate(-1192.544 -669.698)" fill="none" stroke="#f69584" stroke-miterlimit="10" stroke-width="2"/>
    <path id="Path_137" data-name="Path 137" d="M1297.009,4031.53a43.746,43.746,0,1,0,50.27,36.062A43.747,43.747,0,0,0,1297.009,4031.53Z" transform="translate(-1121.804 -688.583)" fill="#fff"/>
    <text id="_485_INVESTIGATED_CASES" data-name="485 
INVESTIGATED
CASES" transform="translate(161.642 3381.327) rotate(-0.018)" fill="#5b184a" font-size="12" font-family="Montserratarm-Black, Montserrat arm" font-weight="800" letter-spacing="0.019em"><tspan x="0" y="0">485</tspan><tspan y="0" font-size="6"> </tspan><tspan font-size="6" font-family="Montserratarm-Medium, Montserrat arm" font-weight="500"><tspan x="0" y="7">INVESTIGATED</tspan><tspan x="0" y="14">CASES</tspan></tspan></text>
    <path id="Path_139" data-name="Path 139" d="M1455.143,4089.077l9.859-5.414h94.354" transform="translate(-1219.536 -715.035)" fill="none" stroke="#f05b5d" stroke-miterlimit="10" stroke-width="2"/>
    <text id="_10_BY_THE_WIFE_TOWARDS_THE_HUSBAND" data-name="10
BY THE WIFE TOWARDS
THE HUSBAND" transform="translate(260 3460.19)" fill="#8b5b7e" font-size="12" font-family="Montserratarm-Black, Montserrat arm" font-weight="800" letter-spacing="0.019em"><tspan x="0" y="0">10</tspan><tspan font-size="6" font-family="Montserratarm-Medium, Montserrat arm" font-weight="500"><tspan x="0" y="7">BY THE WIFE TOWARDS</tspan><tspan x="0" y="14">THE HUSBAND</tspan></tspan></text>
    <text id="_41_BY_A_PARENT_TOWARDS_A_CHILD" data-name="41

BY A PARENT
TOWARDS A CHILD" transform="translate(260 3410.836)" fill="#b292aa" font-size="12" font-family="Montserratarm-Black, Montserrat arm" font-weight="800" letter-spacing="0.019em"><tspan x="0" y="0">41</tspan><tspan font-size="6" font-family="Montserratarm-Medium, Montserrat arm" font-weight="500" letter-spacing="-0.021em"><tspan x="0" y="7"></tspan><tspan x="0" y="14">BY A PAR</tspan><tspan y="14">ENT</tspan><tspan x="0" y="21">TOWARDS A CHILD</tspan></tspan></text>
    <path id="Path_136" data-name="Path 136" d="M1539.913,4260.652h-90.161l-34.763-52.55" transform="translate(-1199.389 -777.472)" fill="none" stroke="#8b5b7e" stroke-miterlimit="10" stroke-width="2"/>
    <path id="Path_138" data-name="Path 138" d="M1559.574,4169.07H1463.4l-8.635-7.322" transform="translate(-1219.346 -752.221)" fill="none" stroke="#b292aa" stroke-miterlimit="10" stroke-width="2"/>
    <text id="_53_BY_A_CHILD_TOWARDS_A_PARENT" data-name="53

BY A CHILD TOWARDS
A PARENT" transform="translate(260 3318.037)" fill="#f69584" font-size="12" font-family="Montserratarm-Black, Montserrat arm" font-weight="800" letter-spacing="0.019em"><tspan x="0" y="0">53</tspan><tspan font-size="6" font-family="Montserratarm-Medium, Montserrat arm" font-weight="500"><tspan x="0" y="7"></tspan><tspan x="0" y="14">BY A CHILD TOWARDS</tspan><tspan x="0" y="21">A PARENT</tspan></tspan></text>
    <text id="_52_BY_AND_TOWARDS_OTHER_FAMILY_MEMBERS" data-name="52

BY AND TOWARDS
OTHER FAMILY MEMBERS" transform="translate(260 3362.712)" fill="#f05b5d" font-size="12" font-family="Montserratarm-Black, Montserrat arm" font-weight="800" letter-spacing="0.019em"><tspan x="0" y="0">52</tspan><tspan font-size="6" font-family="Montserratarm-Medium, Montserrat arm" font-weight="500" letter-spacing="-0.001em"><tspan x="0" y="7"></tspan><tspan x="0" y="14">BY AND TOWARDS</tspan><tspan x="0" y="21">OTHER FAMILY MEMBERS</tspan></tspan></text>
  </g>
</svg>
