<svg xmlns="http://www.w3.org/2000/svg" width="1521.09" height="368.788" viewBox="0 0 1521.09 368.788">
  <g id="Group_128" data-name="Group 128" transform="translate(-199.213 -972)">
    <g id="Group_121" data-name="Group 121">
      <g id="Group_120" data-name="Group 120">
        <path id="Path_108" data-name="Path 108" d="M569.387,4118.9a121.1,121.1,0,1,1-121.1-121.1A121.1,121.1,0,0,1,569.387,4118.9Z" transform="translate(0 -2975)" fill="#f05b5d"/>
        <path id="Path_109" data-name="Path 109" d="M448.286,4118.9l.671-121.1c66.181.367,120.431,54.92,120.431,121.1,0,66.435-54.667,121.1-121.1,121.1s-121.1-54.667-121.1-121.1a121.129,121.129,0,0,1,4.494-32.688Z" transform="translate(0 -2975)" fill="#5b184a"/>
        <path id="Path_110" data-name="Path 110" d="M536.7,4118.9a88.41,88.41,0,1,1-88.409-88.412A88.41,88.41,0,0,1,536.7,4118.9Z" transform="translate(0 -2975)" fill="#fff"/>
        <text id="_485_INVESTIGATED_CASES" data-name="485 
INVESTIGATED
CASES" transform="translate(396.544 1133)" fill="#5b184a" font-size="31.882" font-family="Montserratarm-Black, Montserrat arm" font-weight="800" letter-spacing="0.019em"><tspan x="0" y="0">485</tspan><tspan y="0" font-size="15.869"> </tspan><tspan font-size="15.869" font-family="Montserratarm-Medium, Montserrat arm" font-weight="500"><tspan x="0" y="19">INVESTIGATED</tspan><tspan x="0" y="38">CASES</tspan></tspan></text>
      </g>
      <text id="_126_WERE_PROSECUTED" data-name="126

WERE
PROSECUTED" transform="translate(200.213 1008)" fill="#f05b5d" font-size="31.882" font-family="Montserratarm-Black, Montserrat arm" font-weight="800" letter-spacing="0.019em"><tspan x="0" y="0">126</tspan><tspan font-size="17.709" font-family="Montserratarm-Medium, Montserrat arm" font-weight="500"><tspan x="0" y="19"></tspan><tspan x="0" y="38">WERE </tspan><tspan x="0" y="57">PROSECUTED</tspan></tspan></text>
      <path id="Path_111" data-name="Path 111" d="M395.452,4040.285l-43.564-39.364H200" transform="translate(0 -2982)" fill="none" stroke="#f05b5d" stroke-miterlimit="10" stroke-width="3.892"/>
    </g>
    <g id="Group_124" data-name="Group 124">
      <g id="Group_123" data-name="Group 123">
        <text id="_469_PHYSICAL VIOLENCE" data-name="469

PHYSICAL
VIOLENCE" transform="translate(622.061 1008)" fill="#5b184a" font-size="31.882" font-family="Montserratarm-Black, Montserrat arm" font-weight="800" letter-spacing="0.019em"><tspan x="0" y="0">469</tspan><tspan font-size="17.709" font-family="Montserratarm-Medium, Montserrat arm" font-weight="500"><tspan x="0" y="19"></tspan><tspan x="0" y="38">PHYSICAL VIOLENCE</tspan></tspan></text>
        <text id="_14_PSYCHOLOGICAL_VIOLENCE" data-name="14
PSYCHOLOGICAL
VIOLENCE" transform="translate(622.698 1101.175)" fill="#f05b5d" font-size="31.882" font-family="Montserratarm-Black, Montserrat arm" font-weight="800" letter-spacing="0.019em"><tspan x="0" y="0">14</tspan><tspan font-size="17.709" font-family="Montserratarm-Medium, Montserrat arm" font-weight="500" letter-spacing="0.02em"><tspan x="0" y="20">PSYCHOLOGICAL</tspan></tspan><tspan font-size="17.709" font-family="Montserratarm-Medium, Montserrat arm" font-weight="500"><tspan x="0" y="40">VIOLENCE</tspan></tspan></text>
        <path id="Path_112" data-name="Path 112" d="M621.743,4131.685H775.05l20.352-7.178" transform="translate(0 -2975)" fill="none" stroke="#f05b5d" stroke-miterlimit="10" stroke-width="3.892"/>
        <path id="Path_114" data-name="Path 114" d="M800.335,4165.532l-38.671,16.894H621.743" transform="translate(0 -2973)" fill="none" stroke="#a07996" stroke-miterlimit="10" stroke-width="4.464"/>
        <text id="_2_ECONOMIC_VIOLENCE" data-name="2

ECONOMIC 
VIOLENCE" transform="translate(621.742 1197.258)" fill="#ad8ba4" font-size="31.882" font-family="Montserratarm-Black, Montserrat arm" font-weight="800" letter-spacing="0.019em"><tspan x="0" y="0">2</tspan><tspan font-size="17.709" font-family="Montserratarm-Medium, Montserrat arm" font-weight="500"><tspan x="0" y="19"></tspan><tspan x="0" y="38">ECONOMIC </tspan><tspan x="0" y="57">VIOLENCE</tspan></tspan></text>
        <path id="Path_115" data-name="Path 115" d="M621.743,3993.627H824.926l46,46.726" transform="translate(0 -2975)" fill="none" stroke="#5b184a" stroke-miterlimit="10" stroke-width="4.464"/>
      </g>
      <g id="Group_122" data-name="Group 122">
        <circle id="Ellipse_1" data-name="Ellipse 1" cx="121.102" cy="121.102" r="121.102" transform="translate(789.551 1022.792)" fill="#5b184a"/>
        <path id="Path_106" data-name="Path 106" d="M910.654,4118.9l-121.095,1.4a121.115,121.115,0,0,0,7.377,40.241Z" transform="translate(0 -2975)" fill="#f05b5d"/>
        <path id="Path_107" data-name="Path 107" d="M910.654,4118.9,796.937,4160.54q1.062,2.9,2.27,5.742t2.561,5.619Z" transform="translate(0 -2975)" fill="#a07996"/>
        <path id="Path_116" data-name="Path 116" d="M934.06,4033.663a88.387,88.387,0,1,1-108.64,61.826A88.389,88.389,0,0,1,934.06,4033.663Z" transform="translate(0 -2975)" fill="#fff"/>
        <text id="_485_INVESTIGATED_CASES-2" data-name="485 
INVESTIGATED
CASES" transform="translate(858.589 1133)" fill="#5b184a" font-size="31.882" font-family="Montserratarm-Black, Montserrat arm" font-weight="800" letter-spacing="0.019em"><tspan x="0" y="0">485</tspan><tspan y="0" font-size="15.869"> </tspan><tspan font-size="15.869" font-family="Montserratarm-Medium, Montserrat arm" font-weight="500"><tspan x="0" y="19">INVESTIGATED</tspan><tspan x="0" y="38">CASES</tspan></tspan></text>
      </g>
    </g>
    <g id="Group_127" data-name="Group 127">
      <g id="Group_126" data-name="Group 126">
        <path id="Path_113" data-name="Path 113" d="M1455.143,4094.529l19.788-10.865h237.857" transform="translate(0 -2975)" fill="none" stroke="#f05b5d" stroke-miterlimit="10" stroke-width="3.892"/>
        <text id="_10_BY_THE_WIFE_TOWARDS_THE_HUSBAND" data-name="10
BY THE WIFE TOWARDS
THE HUSBAND" transform="translate(1489.253 1290.514)" fill="#8b5b7e" font-size="31.67" font-family="Montserratarm-Black, Montserrat arm" font-weight="800" letter-spacing="0.019em"><tspan x="0" y="0">10</tspan><tspan font-size="17.591" font-family="Montserratarm-Medium, Montserrat arm" font-weight="500"><tspan x="0" y="19">BY THE WIFE TOWARDS</tspan><tspan x="0" y="38">THE HUSBAND</tspan></tspan></text>
        <text id="_41_BY_A_PARENT_TOWARDS_A_CHILD" data-name="41

BY A PARENT
TOWARDS A CHILD" transform="translate(1488.618 1193.666)" fill="#b292aa" font-size="31.67" font-family="Montserratarm-Black, Montserrat arm" font-weight="800" letter-spacing="0.019em"><tspan x="0" y="0">41</tspan><tspan font-size="17.591" font-family="Montserratarm-Medium, Montserrat arm" font-weight="500" letter-spacing="-0.021em"><tspan x="0" y="19"></tspan><tspan x="0" y="38">BY A PAR</tspan><tspan y="38">ENT</tspan><tspan x="0" y="57">TOWARDS A CHILD</tspan></tspan></text>
        <path id="Path_128" data-name="Path 128" d="M1710.508,4313.571H1484.759l-69.77-105.468" transform="translate(0 -2975)" fill="none" stroke="#8b5b7e" stroke-miterlimit="10" stroke-width="4.434"/>
        <path id="Path_129" data-name="Path 129" d="M1710.508,4176.441H1475.152l-20.388-14.694" transform="translate(0 -2971)" fill="none" stroke="#b292aa" stroke-miterlimit="10" stroke-width="4"/>
        <text id="_329_BY_THE_HUSBAND_TOWARDS_THE_WIFE" data-name="329

BY THE HUSBAND 
TOWARDS THE
WIFE" transform="translate(1060.687 1008)" fill="#5b184a" font-size="31.67" font-family="Montserratarm-Black, Montserrat arm" font-weight="800" letter-spacing="0.019em"><tspan x="0" y="0">329</tspan><tspan x="0" y="19"></tspan><tspan font-size="17.591" font-family="Montserratarm-Medium, Montserrat arm" font-weight="500"><tspan x="0" y="38">BY THE HUSBAND </tspan><tspan x="0" y="57">TOWARDS THE</tspan><tspan x="0" y="76">WIFE</tspan></tspan></text>
        <path id="Path_130" data-name="Path 130" d="M1279.763,4036.49l-31.309-40.94H1060.686" transform="translate(0 -2975)" fill="none" stroke="#5b184a" stroke-miterlimit="10" stroke-width="4.434"/>
        <text id="_53_BY_A_CHILD_TOWARDS_A_PARENT" data-name="53

BY A CHILD TOWARDS
A PARENT" transform="translate(1488.32 1003)" fill="#f69584" font-size="31.67" font-family="Montserratarm-Black, Montserrat arm" font-weight="800" letter-spacing="0.019em"><tspan x="0" y="0">53</tspan><tspan font-size="17.591" font-family="Montserratarm-Medium, Montserrat arm" font-weight="500"><tspan x="0" y="19"></tspan><tspan x="0" y="38">BY A CHILD TOWARDS</tspan><tspan x="0" y="57">A PARENT</tspan></tspan></text>
        <text id="_52_BY_AND_TOWARDS_OTHER_FAMILY_MEMBERS" data-name="52

BY AND TOWARDS
OTHER FAMILY MEMBERS" transform="translate(1488.303 1097.079)" fill="#f05b5d" font-size="31.67" font-family="Montserratarm-Black, Montserrat arm" font-weight="800" letter-spacing="0.019em"><tspan x="0" y="0">52</tspan><tspan font-size="17.591" font-family="Montserratarm-Medium, Montserrat arm" font-weight="500" letter-spacing="-0.001em"><tspan x="0" y="19"></tspan><tspan x="0" y="38">BY AND TOWARDS</tspan><tspan x="0" y="57">OTHER FAMILY MEMBERS</tspan></tspan></text>
        <path id="Path_131" data-name="Path 131" d="M1710.508,3993.3H1420.179l-18.833,21.549" transform="translate(0 -2975)" fill="none" stroke="#f69584" stroke-miterlimit="10" stroke-width="4"/>
      </g>
      <g id="Group_125" data-name="Group 125">
        <g id="Group_54" data-name="Group 54" transform="translate(0 -2975)">
          <g id="Group_45" data-name="Group 45">
            <g id="Group_44" data-name="Group 44">
              <path id="Path_123" data-name="Path 123" d="M1348.056,4118.846l118.892,18.363c5.294-34.276-2.921-65.544-24.378-92.792Z" fill="#f05b5d"/>
            </g>
          </g>
          <g id="Group_47" data-name="Group 47">
            <g id="Group_46" data-name="Group 46">
              <path id="Path_124" data-name="Path 124" d="M1348.1,4118.876l94.435-74.528c-22.762-28.842-54.1-44.617-90.825-45.719Z" fill="#f69584"/>
            </g>
          </g>
          <g id="Group_49" data-name="Group 49">
            <g id="Group_48" data-name="Group 48">
              <path id="Path_125" data-name="Path 125" d="M1348.1,4118.871l80.686,89.232c21.093-19.073,33.785-42.567,38.174-70.663Z" fill="#b292aa"/>
            </g>
          </g>
          <g id="Group_51" data-name="Group 51">
            <g id="Group_50" data-name="Group 50">
              <path id="Path_126" data-name="Path 126" d="M1348.1,4118.871l65.734,100.755a109.739,109.739,0,0,0,14.952-11.523Z" fill="#8b5b7e"/>
            </g>
          </g>
          <g id="Group_53" data-name="Group 53">
            <g id="Group_52" data-name="Group 52">
              <path id="Path_127" data-name="Path 127" d="M1348.1,4118.871l3.945-120.237a120.3,120.3,0,1,0-7.889,240.474c25.964.852,47.921-5.287,69.678-19.482Z" fill="#5b184a"/>
            </g>
          </g>
        </g>
        <path id="Path_132" data-name="Path 132" d="M1333.916,4032.121A87.8,87.8,0,1,0,1434.81,4104.5,87.8,87.8,0,0,0,1333.916,4032.121Z" transform="translate(0 -2975)" fill="#fff"/>
        <text id="_485_INVESTIGATED_CASES-3" data-name="485 
INVESTIGATED
CASES" transform="translate(1296.66 1133.038) rotate(-0.018)" fill="#5b184a" font-size="31.882" font-family="Montserratarm-Black, Montserrat arm" font-weight="800" letter-spacing="0.019em"><tspan x="0" y="0">485</tspan><tspan y="0" font-size="15.764"> </tspan><tspan font-size="15.869" font-family="Montserratarm-Medium, Montserrat arm" font-weight="500"><tspan x="0" y="19">INVESTIGATED</tspan><tspan x="0" y="38">CASES</tspan></tspan></text>
      </g>
    </g>
  </g>
</svg>
