<svg xmlns="http://www.w3.org/2000/svg" width="301.916" height="139.438" viewBox="0 0 301.916 139.438">
  <g id="Group_132" data-name="Group 132" transform="translate(-37.084 -2977)">
    <g id="Group_131" data-name="Group 131">
      <path id="Path_148" data-name="Path 148" d="M447.862,4058.132a60.338,60.338,0,1,1-60.338-60.339A60.339,60.339,0,0,1,447.862,4058.132Z" transform="translate(-205.107 -1002.033)" fill="#f05b5d"/>
      <path id="Path_149" data-name="Path 149" d="M387.523,4058.133l.334-60.339a60.337,60.337,0,1,1-58.434,44.052Z" transform="translate(-205.107 -1002.034)" fill="#5b184a"/>
      <path id="Path_150" data-name="Path 150" d="M447.976,4074.535a44.05,44.05,0,1,1-44.05-44.051A44.051,44.051,0,0,1,447.976,4074.535Z" transform="translate(-221.51 -1018.436)" fill="#fff"/>
      <text id="_485_INVESTIGATED_CASES" data-name="485 
INVESTIGATED
CASES" transform="translate(161.636 3052.224)" fill="#5b184a" font-size="12" font-family="Montserratarm-Black, Montserrat arm" font-weight="800" letter-spacing="0.019em"><tspan x="0" y="0">485</tspan><tspan y="0" font-size="6"> </tspan><tspan font-size="6" font-family="Montserratarm-Medium, Montserrat arm" font-weight="500"><tspan x="0" y="7">INVESTIGATED</tspan><tspan x="0" y="14">CASES</tspan></tspan></text>
      <text id="_126_WERE_PROSECUTED" data-name="126

WERE 
PROSECUTED" transform="translate(38.084 2989.144)" fill="#f05b5d" font-size="12" font-family="Montserratarm-Black, Montserrat arm" font-weight="800" letter-spacing="0.019em"><tspan x="0" y="0">126</tspan><tspan font-size="6" font-family="Montserratarm-Medium, Montserrat arm" font-weight="500"><tspan x="0" y="7"></tspan><tspan x="0" y="14">WERE </tspan><tspan x="0" y="21">PROSECUTED</tspan></tspan></text>
      <path id="Path_151" data-name="Path 151" d="M305.507,4024.064l-30.2-23.143H199.257" transform="translate(-161.151 -1007.091)" fill="none" stroke="#f05b5d" stroke-miterlimit="10" stroke-width="2"/>
    </g>
    <rect id="Rectangle_68" data-name="Rectangle 68" width="301" height="139" transform="translate(38 2977)" fill="none"/>
  </g>
</svg>
