<svg xmlns="http://www.w3.org/2000/svg" width="55.259" height="53.115" viewBox="0 0 55.259 53.115">
  <g id="Group_20" data-name="Group 20" transform="translate(-936.572 -9023.319)">
    <path id="Path_5" data-name="Path 5" d="M965.872,9071.168l.024-.023a.181.181,0,0,0-.046-.022c-.006,0-.015.014-.023.022l.045.023m-4.257-3.7c-.042-.4-.085-.441-.379-.4a.557.557,0,0,0,.379.4m.583-.393c-.087-.275-.138-.483-.448-.44.069.29.077.3.448.44m.538.153a.484.484,0,0,0,.291.522c.064-.282.01-.453-.291-.522m16.326,2.795c-.05.136-.092.3.07.354.146.048.23-.094.28-.226a.341.341,0,0,0-.35-.128m-8.147-.053a.3.3,0,0,0-.237.142.538.538,0,0,0,.388.275c.027-.169-.088-.265-.151-.417m-.384-4.132a.452.452,0,0,0,.614-.1c-.205-.13-.382-.105-.614.1m-2.589-1.524a.477.477,0,0,0,.579-.111.386.386,0,0,0-.579.111m.348-1.146a.775.775,0,0,0-.118.409c.007.1.043.187.153.193.134.007.127-.106.131-.2a.5.5,0,0,0-.166-.406m-.651.887c-.178.269-.213.458-.066.68.262-.184.137-.389.066-.68m2.041-.683a.456.456,0,0,0-.672.033.511.511,0,0,0,.672-.033m-.909-.172c.177-.332.15-.45-.142-.592-.075.229-.1.438.142.592m2.6,1.736a.521.521,0,0,0,.651-.1c-.308-.136-.385-.127-.651.1m-1.093-.226c-.375-.115-.424-.1-.561.177a.494.494,0,0,0,.561-.177m.523-.049c-.306.178-.3.352.005.572a.538.538,0,0,0-.005-.572m-.513,1.912c-.262-.121-.455-.122-.616.177.244.045.441.062.616-.177m-.159-1.079c-.317.257-.309.4.017.576a.59.59,0,0,0-.017-.576m-10.1-25.149c-.115.413-.077.5.235.58a.85.85,0,0,0-.235-.58m.344,26.686a.935.935,0,0,0-.744-.477,1.146,1.146,0,0,0,.744.477m5.612.405c-.425.016-.482.083-.4.436a.525.525,0,0,0,.4-.436m-3.786.282a1.083,1.083,0,0,0,.771.485,1,1,0,0,0-.771-.485m8.09-3.761c.356.122.523.082.7-.151a.678.678,0,0,0-.7.151m-.478-.392a.736.736,0,0,0-.063.764c.254-.257.188-.481.063-.764m-8.819,4.551c-.073-.342-.245-.427-.566-.283.133.21.277.387.566.283m16.181,1.49c.161-.1.235-.246.175-.367a.267.267,0,0,0-.378-.107c-.038.2.08.319.2.475m-16.607-14.771c-.464.162-.5.241-.261.529a.484.484,0,0,0,.261-.529m.791,12.955c-.077-.34-.284-.409-.572-.4.054.326.234.435.572.4m-1.612-14.748c.039.458.157.528.493.318a.451.451,0,0,0-.493-.318m19.531-25.968a.234.234,0,0,0-.243-.175c-.139.008-.252.081-.246.226.005.122.1.187.235.2.155.013.235-.053.254-.249m-18.6,27.208c.049-.335.049-.335-.165-.565a.271.271,0,0,0-.176.325.282.282,0,0,0,.341.24m-3.028.191c-.09.372-.09.372.13.586.282-.264.249-.441-.13-.586m5.3,11.646a1.5,1.5,0,0,0-.418-1.074,1.951,1.951,0,0,0,.418,1.074m-6.1-24.686a.212.212,0,0,0,.2-.221.2.2,0,0,0-.237-.228.232.232,0,0,0-.226.254c.012.123.112.193.259.194M978,9069.566c-.016.268-.02.484.192.643a.478.478,0,0,0,.2-.454c-.126-.06-.236-.114-.391-.188m-17.7-15.1a.473.473,0,0,0-.706-.072c.21.344.388.359.706.072m8.988,8.624c.309-.081.586-.117.649-.479-.377-.069-.559.1-.649.479m-11.534-9.218c.193-.028.359-.044.425-.226a.258.258,0,0,0-.126-.345.544.544,0,0,0-.3.57m.274,1.56a.461.461,0,0,0,.562.338c-.061-.435-.081-.447-.562-.338m11.186,9.107c-.32.179-.351.334-.163.7.271-.176.265-.406.163-.7m1.352-1.087a.557.557,0,0,0-.073-.744.482.482,0,0,0,.073.744m-11.471-8.8c.189-.007.3-.081.295-.247s-.139-.206-.264-.211a.23.23,0,0,0-.246.234.2.2,0,0,0,.215.224m-.755-1.281c.065.271,0,.546.339.6.1.016.189-.014.2-.134.016-.324-.226-.378-.535-.463m4.909,3.873c-.087.279-.156.5-.224.721.17.087.317.073.379-.062.094-.212.005-.413-.155-.658m-5.367-3.121a.322.322,0,0,0,.143.227.39.39,0,0,0,.448.056.147.147,0,0,0,.085-.2.357.357,0,0,0-.4-.194c-.1.012-.209,0-.273.111m13.444,10.05c.353-.107.433-.38.5-.677-.395.044-.467.138-.5.677m1.181-.624a.845.845,0,0,0-.485.755c.45-.166.55-.317.485-.755m-12.717-7.827c-.415-.267-.614-.218-.763.169a.65.65,0,0,0,.763-.169m7.555,16.206c-.066-.452-.142-.787-.55-1a1.5,1.5,0,0,0,.55,1m3.217-2.2c.184-.105.391-.2.3-.438-.074-.192-.263-.214-.449-.169a.557.557,0,0,0,.148.607m-10.475-16.145c-.295.038-.567.051-.624.369a.186.186,0,0,0,.23.2c.268-.059.381-.258.394-.565m9.845,8.125c-.359.05-.456.206-.4.625.427-.036.495-.136.4-.625m-3.691,4.971a1.477,1.477,0,0,0,1.1.588,1.4,1.4,0,0,0-1.1-.588m-6.369-11.306a.506.506,0,0,0-.044-.429.318.318,0,0,0-.322-.152c-.083,0-.158.022-.171.129a.33.33,0,0,0,.132.3.6.6,0,0,0,.4.153m10.189-1.963a2.124,2.124,0,0,0-.025.972,4.353,4.353,0,0,0,.361-.925.386.386,0,0,0-.336-.047m1.41,16.916a.372.372,0,0,0,.223-.472.389.389,0,0,0-.437-.266.711.711,0,0,0,.214.737m16.812-33.535c.09-.686-.115-1-.66-.867.41.179.365.584.66.867m-20.774,17.421c.209.395.557.142.8.216.2.061.228-.075.2-.235a1.862,1.862,0,0,0-1.006.02m1.915,7.516c-.429-.006-.651.4-.465.9a1.662,1.662,0,0,0,.465-.9m-1.932-2.9c.28-.336.276-.408-.03-.593a1.047,1.047,0,0,1-.386-.423,1.454,1.454,0,0,0,.416,1.016m5.184-2.978a.442.442,0,0,0,.142-.331c-.369.044-.36-.33-.57-.534l-.315.448c.226.188.6.039.743.417m5.759,10.339c-.235-.09-.423-.189-.633-.1-.007.149.149.137.184.247-.15.135-.417.15-.447.438a1.348,1.348,0,0,0,.9-.581m-17.7,5.655a2.861,2.861,0,0,0,1.143-.865,1.761,1.761,0,0,0-1.143.865m-3.68-17.191c-.19.623-.118,1.1.188,1.31a1.891,1.891,0,0,0-.188-1.31m13.72-12.274c-.213.3-.485.556-.454.986a.642.642,0,0,0,.454-.986m-.943,24.794a.7.7,0,0,0-.74.7c.334.09.607-.167.74-.7M969.079,9042a.984.984,0,0,0,1.165-.337c-.422,0-.855-.12-1.165.337m3.215,2.058a1.847,1.847,0,0,0-.021-1.54,3.13,3.13,0,0,0,.021,1.54m-10.167,29.12a3.021,3.021,0,0,0,1.326-.949,2.256,2.256,0,0,0-1.326.949m5.525-2.207a4.911,4.911,0,0,0,.8,1.708,3.383,3.383,0,0,0-.8-1.708m-8.9-28.116a1.259,1.259,0,0,0,1.128-.812,1.944,1.944,0,0,0-1.128.813m1.811,16.873c.114-.828,0-1.21-.389-1.312a1.475,1.475,0,0,0,.389,1.313m11.192,1.708a1.018,1.018,0,0,0-.847,1.112,2.548,2.548,0,0,0,.847-1.112m-15.236-5.562a1.744,1.744,0,0,0-.019-1.607,2.606,2.606,0,0,0,.019,1.607m16.461-11.75c.094-.833,0-1.217-.341-1.344-.1.722,0,1.139.341,1.344m-9.991,25.552a4.86,4.86,0,0,0-1.569-.964,2.281,2.281,0,0,0,1.569.964m22.161-6.064a1.469,1.469,0,0,0-.906.264c.142.108.273.007.39.067-.309.347-.309.347-.32.577a1.5,1.5,0,0,0,.836-.908m-27.447-7.516a2.192,2.192,0,0,0,1.71.655,3.689,3.689,0,0,0-1.71-.655m-.87-5.894c-.077-.321-.179-.519-.485-.451a1,1,0,0,0-.631,1.126c.261-.407.4-.984,1.116-.675m-8.668-3.353c.317-.037.492-.156.551-.414a.816.816,0,0,0-.111-.657c-.078-.111-.225-.03-.334.034a2.575,2.575,0,0,1-.106,1.037m20.385-7.018a2.8,2.8,0,0,0-1.546-.515,1.488,1.488,0,0,0,1.546.515m4.146,4.354c-.144.755.032,1.347.448,1.581a3.536,3.536,0,0,0-.448-1.581m14.369-9.533c0-.7-.223-.943-.869-1a1.737,1.737,0,0,0,.869,1m-24.051,34.47c-.009-.45-.7-.94-1.258-.9.26.544.79.662,1.258.9m-3.734-11.823a2.09,2.09,0,0,0-1.7-.664,3.215,3.215,0,0,0,1.7.664m18.155-31.181a2.977,2.977,0,0,0,1.7.167c.061-.188-.014-.306-.149-.318a4.3,4.3,0,0,0-1.549.151m-23.192,25.507a1.846,1.846,0,0,0,1.426.753c-.019-.154.082-.3-.116-.372a6.913,6.913,0,0,0-1.31-.381m17.214,11.408a2.167,2.167,0,0,0,.917-.932.238.238,0,0,0-.059-.312c-.1-.068-.174,0-.24.063a2.025,2.025,0,0,0-.618,1.181m6.535,2.869a1.737,1.737,0,0,0,1.281-.556,1.708,1.708,0,0,0-1.1,0c.01.156.162.141.21.251-.129.087-.333.066-.387.307m-9.548-6.787c.823.058,1.184-.174,1.2-.77a2.161,2.161,0,0,0-1.2.77m1.075-1.07.1,0V9054.1h-.1Zm1.14-16.156a1.154,1.154,0,0,0-.92.614.287.287,0,0,0,.007.326.149.149,0,0,0,.154.051,1.2,1.2,0,0,0,.759-.991m-11.4,15.944a3.037,3.037,0,0,0-1.892-.587,2.827,2.827,0,0,0,1.892.587m12.605-15.851a2.424,2.424,0,0,0,.042,1.94,3.036,3.036,0,0,0-.042-1.94m-10.114,17.028a1.02,1.02,0,0,0,1,.214.547.547,0,0,0,.432-.4c.045-.24-.122-.376-.348-.523-.017.733-.576.65-1.085.708m-.864,13.517a5.623,5.623,0,0,0,1.84-1.582,4.227,4.227,0,0,0-1.84,1.582m12.438-1.843v-.106a2.343,2.343,0,0,0-1.334-.368c-.185.014-.225.125-.226.278s.093.2.223.2h1.337m-3.374-30.717c-.131-.547-.759-.76-1.505-.527a2.085,2.085,0,0,0,1.505.527m-8.613,23.916a2.382,2.382,0,0,0,.89,1.734,2.571,2.571,0,0,0-.89-1.734m-.754,5.48a2.561,2.561,0,0,0,1.6.319,3.137,3.137,0,0,1-1.013-.809l-.584.489m23.692-5.89a2.022,2.022,0,0,0,1.231-1.009c-.916-.053-1.255.041-1.242.331.229.074.465-.033.708,0-.113.367-.745.109-.7.678m-18.909,4.58c-.087.83.358,1.648.934,1.7a6.034,6.034,0,0,0-.934-1.7m-7.891,6.348a7.711,7.711,0,0,0,1.957-1.547,3.8,3.8,0,0,0-1.957,1.547m.237-3.309a5.8,5.8,0,0,1-2.2,2.109c.117.156.215.214.38.088a7.835,7.835,0,0,0,1.6-1.555.8.8,0,0,0,.217-.643m-9.77-23.713a1.5,1.5,0,0,0,.311,1.789,1.771,1.771,0,0,0-.311-1.789m11.363,11.64c.45,0,.49.413.721.666a.641.641,0,0,0,.005-.565,1.165,1.165,0,0,1-.085-.607c.057-.314-.1-.465-.374-.539a.728.728,0,0,0-.1.5,1.355,1.355,0,0,1-.169.541m6.773,8.782a2.013,2.013,0,0,0,.906,1.743,2.432,2.432,0,0,0-.906-1.743m3.274-15.63v.466c-.474.041-.474.041-.432.337.139.052.294-.043.419.03.079.166-.093.462.166.472.29.013.134-.324.226-.472.141-.057.285.052.413-.04a.326.326,0,0,0-.041-.31h-.379c-.063-.172.031-.339-.052-.483Zm12.963-3.223a4.678,4.678,0,0,1-1.2-1.17c-.393.252-.432.43-.162.73a1.414,1.414,0,0,0,1.357.439m3.889-8.05a.494.494,0,0,0-.011.988.511.511,0,0,0,.5-.506.518.518,0,0,0-.486-.482m-20.135,25.72h-3.755c-.03.243.137.191.247.191q1.641.012,3.282.011c.106,0,.251.041.226-.2M953.474,9031c.55-.025.763-.189.869-.587a2.145,2.145,0,0,0-.057-1.261c-.114.032-.206.061-.35.1.254.657-.089,1.179-.462,1.744m4.269,44.091a9.05,9.05,0,0,0,2.387-1.878,6.286,6.286,0,0,0-2.387,1.878m-5.174-3.417c-.016.2-.027.359-.039.528a2.881,2.881,0,0,0,1.4.089c.135-.038.291-.081.287-.249,0-.187-.181-.184-.312-.2a6.148,6.148,0,0,1-1.341-.169m3.024.938a2.37,2.37,0,0,0,1.585-1.069l-.337-.319a3.8,3.8,0,0,0-1.248,1.389m.383-16.729a2.322,2.322,0,0,0-.041-2.208,2.976,2.976,0,0,0,.041,2.208m4.992,18.286a6.1,6.1,0,0,0-2.15,1.771,5.327,5.327,0,0,0,2.15-1.771m7.825-20.25c.063.813.063.813.324,1,.182-.545-.162-1.038-.125-1.576-.25.023-.468.021-.514-.3-.211.214-.445.349-.528.613a2.229,2.229,0,0,0,.843.265m-11.47,16.774c-.587-.163-2.212,1.106-2.382,1.845.2.073.294-.082.4-.2a5.47,5.47,0,0,1,1.777-1.445.308.308,0,0,0,.208-.2m.824,4.89a8.379,8.379,0,0,0,2.541-2.05,9.36,9.36,0,0,0-2.541,2.05m-1.532-34.927c-.034-.141-.2-.2-.2-.343.053-.115.2-.147.218-.293-.083-.092-.171-.191-.267-.3l-.284.219c-.1-.1-.185-.193-.271-.282a.646.646,0,0,0-.292.255c.081.109.162.217.233.312-.057.139-.223.156-.248.315.087.073.124.209.262.238l.288-.192.264.3a.8.8,0,0,0,.3-.225m1.775-13.352a1.659,1.659,0,0,0,1.989.909c-.026-.2-.092-.353-.337-.336a1.074,1.074,0,0,1-.927-.435.508.508,0,0,0-.725-.139m10.78,13.356a1.581,1.581,0,0,0,1.543.176,1.874,1.874,0,0,0-.866-.33c.149-.086.3.01.431-.123a2.7,2.7,0,0,0-1.487-.4c.1.351.449.328.636.542-.1.031-.2.044-.257.14m2.4,1.3c-.22.031-.459.047-.481.249-.058.554-.318,1.159.252,1.615.176.141.106.428.336.534a.3.3,0,0,0,.016-.437,1.467,1.467,0,0,1-.174-1.092,4.77,4.77,0,0,0,.051-.869m.415-17.209c-.029,1.008,1.555,2.588,2.44,2.427-.47-.321-1.093-.482-1.384-.985-.3-.523-.83-.865-1.056-1.441m-16.882,32.778a2.609,2.609,0,0,0,.585,1.763c.086.093.191.179.331.1a.3.3,0,0,0,.154-.32.873.873,0,0,0-.06-.267,3.671,3.671,0,0,0-1.01-1.277m13.133-16.776c.222.228.468.348.612.569a.223.223,0,0,0,.186.126c.413.015.825.04,1.237.055.3.013.446-.133.425-.45-.413,0-.825,0-1.236,0s-.733-.365-1.224-.3m-8.812,28.017c.217-.192.233-.443.4-.605.786-.786,1.423-1.782,2.723-1.885-.295-.339-.612-.189-.879-.053a5.339,5.339,0,0,0-2.116,1.971.745.745,0,0,0-.124.572m-3.051-23.735c.724,0,1.951-.889,1.938-1.363-.244.232-.452.53-.864.461.226-.647.231-.673.171-1.067a6.38,6.38,0,0,1-1.245,1.97m28.731,16.2c-.239.217-.6.1-.844.325.2.209.441.069.64.141-.133.3-.652.079-.676.517a1.157,1.157,0,0,0,1.36-1.2c.008-.163-.107-.217-.224-.265a.278.278,0,0,0-.321.04c-.106.1-.061.206,0,.31.028.048.048.1.064.136m-5.423-34.608c.092,1.237.794,1.535,1.592,1.385-.337-.7-1-.984-1.592-1.385m-26.751,14.816a6.357,6.357,0,0,0-.431-2.221c-.576.892-.3,2.146.431,2.221m8.516,17.19a1.716,1.716,0,0,0,1.49-1.186c.174-.51-.072-.842-.625-.845.234.721.262.939-.865,2.03m-6.854-33.957a3.938,3.938,0,0,0-1.648-.5,1.478,1.478,0,0,0-.915.26.308.308,0,0,0-.1.4c.062.135.181.095.263.032a1.269,1.269,0,0,1,1.483-.07,1.19,1.19,0,0,0,.4.1.446.446,0,0,0,.519-.231m7.277,6.723a.6.6,0,0,0-.459-.6,1.393,1.393,0,0,1-.682-.445c-.152-.169-.309-.335-.49-.53a1.033,1.033,0,0,0,.18,1.092,1.66,1.66,0,0,0,1.451.486m9.267,26.535c-.4-.136-.421-.441-.386-.778-.323.058-.346.367-.541.493a.551.551,0,0,0-.238.561,1.333,1.333,0,0,1-.236.956,4.209,4.209,0,0,0,1.4-1.231m-16.5-4.353a5.49,5.49,0,0,0,.807,2.021l.128-1.272c.077-.754-.042-.867-.816-.778a.986.986,0,0,0-.119.03m21.694,18.529a1.732,1.732,0,0,0-.11-.6c-.474.127-.949.083-1.41.171-.153.029-.33.084-.339.285s.154.288.329.332a2.52,2.52,0,0,0,1.53-.187m-20.669-43.625c.069.243.15.469.2.7.033.166.054.356-.14.456a.456.456,0,0,1-.542-.066c-.085-.075-.151-.171-.229-.255-.095-.105-.187-.3-.348-.162-.135.116-.059.3.048.434a1.681,1.681,0,0,0,.858.538.524.524,0,0,0,.7-.407,1.8,1.8,0,0,0-.111-1.041c-.071-.22-.184-.3-.439-.2m4.555,42.146c0-.3.02-.569-.005-.831-.028-.278-.209-.4-.411-.287a5.857,5.857,0,0,0-1.249,1.118Zm9.819.059a3.662,3.662,0,0,0-1.578-1.282,2.74,2.74,0,0,0,.027,1.282Zm17.89-32.324a.664.664,0,0,0-.506-.461,1.067,1.067,0,0,0-1.117.452,2.733,2.733,0,0,0-.338,2.083c.033.223.22.289.444.266-.021-.473-.2-.9-.185-1.349a1.04,1.04,0,0,1,1.433-1.047c.062.02.129.026.269.056m-15.747,17.533c-.732-.212-1.571.111-1.527.89.227-.007.359-.184.528-.288a.273.273,0,0,1,.35.02c.128.107.074.241,0,.339a2.8,2.8,0,0,1-.318.313c-.109.107-.207.219-.069.374a1.953,1.953,0,0,0,1.034-1.647m11.633-7.612a.665.665,0,0,0-.442-.626,1.336,1.336,0,0,1-.625-.517,3.732,3.732,0,0,0-.343-.427c-.078-.085-.164-.217-.315-.114a.333.333,0,0,0-.153.412,2.111,2.111,0,0,0,1.878,1.271m-33.739-2.322c-.736-.717-.543-1.619-.677-2.454a2.223,2.223,0,0,1-.509,1.436,1.906,1.906,0,0,0-.121.209c-.176.359-.106.558.259.713a1.725,1.725,0,0,0,1.048.1m6.345-17.406a1.424,1.424,0,0,0,1.523.7c.347-.132.463-.479.346-1.038-.14-.67-.317-.888-.71-.857.025.088.047.174.074.257a3.846,3.846,0,0,1,.223.756.4.4,0,0,1-.2.467.393.393,0,0,1-.472-.1c-.049-.05-.1-.09-.152-.14a.42.42,0,0,0-.628-.045m-3.547,14.271c-.72,0-.752-.037-.751-.755a1.963,1.963,0,0,0-.111-.806,2.809,2.809,0,0,0-.325,1.507,1.355,1.355,0,0,0,.188.691.688.688,0,0,0,.8.255c.289-.084.143-.322.178-.492a2.572,2.572,0,0,0,.024-.4m5.662-7.275a1.273,1.273,0,0,0,.461,1.541.73.73,0,0,0,.815.038.86.86,0,0,0,.354-.781c0-.193-.151-.2-.274-.251-.108-.043-.206-.092-.293.057-.17.288-.375.215-.557.015s-.331-.4-.506-.618m4.679-.561c-.132-.458-.208-.91-.79-1-.24-.036-.389-.268-.538-.459-.089-.114-.14-.266-.288-.326-.443.405-.457.552-.084,1a2.753,2.753,0,0,0,.687.618,1.2,1.2,0,0,0,1.013.169m-9.7-5.969a1.273,1.273,0,0,0,1.263-.312,1.574,1.574,0,0,1,1.172-.461,1.389,1.389,0,0,0,1.192-.7.7.7,0,0,1,.614-.366,1.617,1.617,0,0,0,1.258-.618c.129-.178.261-.378.105-.611-.148.024-.177.128-.2.228a.923.923,0,0,1-.719.67,2.713,2.713,0,0,1-.709.13.489.489,0,0,0-.505.323,1.175,1.175,0,0,1-.721.651,1.972,1.972,0,0,1-.82.066.6.6,0,0,0-.564.229,1.426,1.426,0,0,1-1.07.554c-.119,0-.262,0-.294.222m1.341,14.566a6.175,6.175,0,0,1,1.546-1.909l-.476-.556c-.108.017-.149.136-.255.1-.141-.109-.207-.309-.463-.343a2.226,2.226,0,0,1-.25,1.382c-.083.25-.174.5-.238.755a.519.519,0,0,0,.136.569m5.582,21.4c.069-.7-1.476-2.985-2.505-3.785a13.322,13.322,0,0,0,2.505,3.785m14.936-18.854a3.488,3.488,0,0,0,1.183-2.939l-.509-.092a12.692,12.692,0,0,0-.674,3.031m-14.495-10.606a.574.574,0,0,0-.108.744,1.823,1.823,0,0,0,.939.777.507.507,0,0,0,.621-.161,1.55,1.55,0,0,0-.419-1.93c.014.3.038.594.036.888,0,.186-.037.392-.251.448-.191.052-.325-.086-.433-.224-.132-.172-.251-.353-.385-.543m-4.993,35.5a11.5,11.5,0,0,0-2.838.017.7.7,0,0,0-.159.063.211.211,0,0,0-.133.218c0,.13.1.144.191.151.3.024.593.039.891.061.635.046.7.121.637.735,0,.023-.015.074.068.062a9.589,9.589,0,0,1,1.343-1.306m8.152-1.377v-2.309a.34.34,0,0,0-.391-.375c-.235.006-.389.113-.382.384.009.357,0,.715,0,1.072v1.228Zm1.1.014c0-.785.008-1.576,0-2.367,0-.242-.2-.329-.41-.324s-.36.1-.36.331c0,.778,0,1.558,0,2.36Zm-5.484-37.839c-.148.389-.383.7-.034,1.033.522.5,1.022.671,1.405.464a.98.98,0,0,0,.464-1.062.93.93,0,0,0-.881-.868,3.7,3.7,0,0,1,.3,1.026c.012.137.022.294-.124.367a.363.363,0,0,1-.388-.073,1.838,1.838,0,0,1-.3-.283c-.144-.175-.271-.363-.447-.6m-1.174-2.765c-.091.088-.154.156-.225.214-.28.22-.23.425.005.646a1.923,1.923,0,0,0,.941.543.66.66,0,0,0,.871-.621,2.083,2.083,0,0,0-.127-.881c-.175-.538-.223-.567-.815-.484-.031.15.067.261.125.381a1.8,1.8,0,0,1,.237.714c.006.151.012.314-.148.393s-.281-.04-.39-.141a2.748,2.748,0,0,1-.474-.764m-8.733,5.146c-.616-.094-.725-.3-.463-.815.051-.1.122-.194.182-.292a.843.843,0,0,0,.2-.414c-.2-.268-.4-.209-.61-.016a2.021,2.021,0,0,1-1.093.547c-.193.028-.405.065-.54-.121s-.019-.371.065-.549c.109-.231.317-.417.355-.709-.375-.033-.463.284-.608.487-.2.285-.45.624-.227.977.235.373.645.253,1.01.21a3.425,3.425,0,0,0,1.093-.5,7.674,7.674,0,0,0-.28.818.579.579,0,0,0,.377.663c.243.087.416-.021.541-.281m5.1-.607c-.553.516-.579.679-.228,1.259a2.568,2.568,0,0,0,.262.361.776.776,0,0,0,1.157.058,1.474,1.474,0,0,0,.373-1.231c0-.459-.136-.579-.618-.521a1.359,1.359,0,0,0,.006.372,1.074,1.074,0,0,1-.016.7c-.042.113-.062.268-.213.285a.37.37,0,0,1-.375-.2,2.232,2.232,0,0,1-.168-.41c-.064-.205-.113-.415-.18-.672m4.664,23.881a.542.542,0,0,0,.28.4,3.774,3.774,0,0,0,1.145.545.63.63,0,0,0,.782-.336.564.564,0,0,0-.207-.755,3.729,3.729,0,0,0-1.771-.754c.164.436.65.436.915.753-.322.054-.552-.194-.84-.169.179.381.62.389.918.672-.465-.028-.788-.367-1.222-.354m-6.81-20.821c.527-.276.544-.423.161-.813-.582.545-.771.48-.982-.334-.6.153-.643.311-.263.824a1.076,1.076,0,0,0,.292.238,1.982,1.982,0,0,0,.766.181c-.018.044-.022.085-.045.1-.55.386-.443,1.52-.108,2.01.068.1.146.194.277.157s.1-.165.111-.263a.931.931,0,0,0-.01-.241,2.8,2.8,0,0,1,.12-1.491.442.442,0,0,0,.042-.338l-.361-.03m7.5,25.352.824,1.229c.058-.075.11-.143.171-.218.6.46.854,1.237,1.571,1.6v-1.808a13.919,13.919,0,0,1-2.566-.8m11.95-1.02a4.34,4.34,0,0,1-.762-1.5,14.8,14.8,0,0,1-2.261,1.825,6.449,6.449,0,0,1,1.228-.006c.025.3.047.587.071.876.035.023.069.049.1.071-.027-1.118.7-1.288,1.62-1.271m-26.285-23.922a1.343,1.343,0,0,0-.518.706c-.284.611-.546,1.233-.82,1.851a1.3,1.3,0,0,1-.692.729.579.579,0,0,0-.374.655.692.692,0,0,0,.464-.094,2.3,2.3,0,0,0,.971-.851,16.874,16.874,0,0,0,1.174-2.365.466.466,0,0,0-.205-.632m-2.34,8.929c.487-.105.536-.159.567-.584a21.241,21.241,0,0,1,.272-2.188,8.1,8.1,0,0,0,.218-1.423c-.47.016-.615.13-.7.554s-.173.832-.236,1.251a8.072,8.072,0,0,0-.121,2.391m12.352,3.548h-1.913a9.056,9.056,0,0,0,.085,1.4c.02.111.05.2.165.23l1.16.357c.058-.7-.237-1.452.5-1.99m-4.991,9.174a4.507,4.507,0,0,0,.8-3.5c-.219.358-.084.816-.4,1.131-.18-.43.082-.91-.25-1.4a6.309,6.309,0,0,0-.154,3.767m-.163-10.858a4.825,4.825,0,0,1-.681-1.421.22.22,0,0,0-.146-.179,3.5,3.5,0,0,0-.876-.186c.03.147.055.268.072.354-.294.275-.366.785-.9.678a1.307,1.307,0,0,0,.745,1.071c.37.162.588,0,.559-.4a3.725,3.725,0,0,0-.3-.955c.325.184.453.458.681.613a1.688,1.688,0,0,0,.842.422m-4.806-7.433a1.857,1.857,0,0,0-.709,1.125,22.526,22.526,0,0,1-.9,3.956c-.133.4-.114.439.262.78.768-1.9.775-3.949,1.343-5.861m7.946-5.728c-.838.295-.789.912-.576,1.595.133.423.25.893.753.971a1.118,1.118,0,0,0,1.083-.663c.428-.665.321-.694-.227-1.094-.076.221-.144.439-.227.652-.069.177-.19.346-.392.333s-.289-.217-.332-.395a3,3,0,0,1-.063-.787,1.536,1.536,0,0,0-.019-.612m10.519,28.057v3.568a3.528,3.528,0,0,0,.749-.027v-3.61l-.749.069m-1.111,3.562h.737v-3.565c-.252-.022-.487-.047-.737-.072Zm25.653-28.15a1.466,1.466,0,0,0-1.169-1.419.659.659,0,0,0-.765.608c-.086.439.26.378.487.423a.693.693,0,0,1,.528.508c.094.251-.153.266-.271.363-.213.176-.2.271.062.378.6.245,1.123-.15,1.128-.861m-13.557,12.706a1.75,1.75,0,0,0,.753-.742,1.55,1.55,0,0,1,.609-.664c.217-.147.456-.263.681-.4a1.228,1.228,0,0,0,.6-.867.8.8,0,0,0-.19.072,1.258,1.258,0,0,1-1.265.169.572.572,0,0,0-.6.164,1.756,1.756,0,0,0-.523.87,5.474,5.474,0,0,0-.063,1.4m-25.581-9.58c-.293.4-.337.963-.048,1.168a.476.476,0,0,1,.171.649,3.013,3.013,0,0,0-.116.4,2.68,2.68,0,0,0,.383,2.335,1.313,1.313,0,0,0,2,.174.709.709,0,0,0,.025-1.016.38.38,0,0,0-.577.037c-.108.188-.154.4.1.538.087.049.2.077.25.194a.684.684,0,0,1-.788.393c-.588-.056-.987-.552-1.068-1.3a5.575,5.575,0,0,1,.228-2.082c.049-.181.057-.3-.119-.4a.724.724,0,0,1-.383-.841.23.23,0,0,0-.058-.247m20.6,29.748h-2.225c.175.467.34.9.5,1.344a.167.167,0,0,0,.183.119h2.186a1.709,1.709,0,0,1-.645-1.462m1.5-45.5c-.128-.415-.3-.53-.645-.353a2.215,2.215,0,0,0-1.238,1.681.754.754,0,0,0,.792.842.391.391,0,0,0,.412-.38.344.344,0,0,0-.316-.413c-.059-.012-.133.024-.179-.056.315-.225.6-.017.885.063a.8.8,0,0,0,1.009-.282,14.011,14.011,0,0,0-1.656-.532c.24-.352.691-.3.936-.57m-21.134,26.191a11.2,11.2,0,0,0-1.149,6c.74-.719,1.41-2.728,1.123-3.329-.3.379-.167.946-.585,1.267a1.3,1.3,0,0,1-.062-.655,9.341,9.341,0,0,1,.551-2.342,1.464,1.464,0,0,0,.122-.939m-6.917-15.21c-.1.178-.175.315-.244.458-.575,1.187-1.157,2.373-1.719,3.565a2.521,2.521,0,0,1-.9,1.148.913.913,0,0,0-.43.689,1.958,1.958,0,0,0,1.189-.609,4.176,4.176,0,0,0,.835-1.376,21.444,21.444,0,0,1,1.164-2.681,1.189,1.189,0,0,0,.1-1.2m.255,12.574a.851.851,0,0,0-.049.916,20.079,20.079,0,0,1,.728,2.188,5.759,5.759,0,0,1-.075,3.823,1.1,1.1,0,0,0,.006.756.217.217,0,0,0,.193-.1,2.353,2.353,0,0,0,.447-1.317,12.861,12.861,0,0,0-.859-5.645,1.223,1.223,0,0,0-.391-.618m5.716,1.75a14.68,14.68,0,0,0-1.61,5.47c.79-.51,2.415-4.051,2.2-4.8a8.77,8.77,0,0,1-1.526,2.9.935.935,0,0,1,.029-.429,16.822,16.822,0,0,1,.952-2.656c.06-.142.2-.3-.046-.485m5.073,2.442c.259-.2.459-.093.668,0,.233.106.461.162.453-.32.134.291.186.521.484.632v-1.069c.165.281.1.622.314.895.176-.231.007-.513.178-.761.144.323.087.672.36.988a4.575,4.575,0,0,0-.145-2.064.514.514,0,0,0-.684-.3.732.732,0,0,0-.517.588,3.126,3.126,0,0,0,0,1.079,9.306,9.306,0,0,0-1.444-.606,1.1,1.1,0,0,1,.329.936m-1.274,1.446a9.8,9.8,0,0,0,.488,4.75,3.225,3.225,0,0,0,.662-2.484.483.483,0,0,0-.244-.386c-.152.077-.256.243-.479.222-.206-.333-.087-.711-.119-1.066a1.613,1.613,0,0,0-.308-1.035M964.7,9074.78v-3.82a4.656,4.656,0,0,0-.894.027c-.056,1.277-.032,2.539,0,3.822.471-.375.471-.375.889-.029m-7.5-2.292c.645,0,1.2.039,1.744-.014a3.3,3.3,0,0,0,1.045-.447.2.2,0,0,0,.1-.207c-.033-.32.137-.377.418-.374a.522.522,0,0,0,.541-.415h-3.015a2.244,2.244,0,0,1-.834,1.457m1.416-41.959a1.26,1.26,0,0,0,.048.19,3.975,3.975,0,0,1,.3.878c.027.14.026.29-.126.361a.319.319,0,0,1-.374-.1,1.483,1.483,0,0,1-.326-.442c-.082-.182-.192-.312-.413-.3.224-.85-.148-1.637-.742-1.611a4.045,4.045,0,0,1,.339.936c.014.153.07.351-.1.441a.386.386,0,0,1-.487-.154c-.177-.209-.327-.44-.5-.682-.048.221-.315.352-.154.628a1.185,1.185,0,0,0,1.594.68c.053.141-.169.254-.033.41a2.216,2.216,0,0,0,.906.723.537.537,0,0,0,.558-.061,1.165,1.165,0,0,0,.307-1.234c-.106-.465-.261-.59-.8-.668m-1.652,19c.144.573.144.572.671.648a1.612,1.612,0,0,1,.237.047,1.067,1.067,0,0,1,.62,1.216c-.061.433-.428.321-.7.371a.4.4,0,0,0-.069.025V9053c.409-.013.637-.349.984-.44.363-.094.669.2,1.076.111a5.813,5.813,0,0,1-1.16-3.147Zm-9.924-11.9c-.617-.2-.872.116-1.061.574-.2.477-.406.951-.636,1.412a2.828,2.828,0,0,1-1.715,1.593,1.07,1.07,0,0,0-.726.835,3.341,3.341,0,0,0,2.406-1.281,23.036,23.036,0,0,0,1.732-3.133m5.348,17.522c-.584.423-.373,2.863.115,4.146.67-.379,1.155-3.426.714-4.507a.539.539,0,0,0-.255.493c-.025.263-.035.527-.075.79a.743.743,0,0,1-.309.627c-.336-.485-.056-1.039-.19-1.549m-8.6,4.352a.62.62,0,0,0,.11-.359,6.8,6.8,0,0,0-.1-1.82c-.432-2.021-1.1-3.975-1.714-5.972a.717.717,0,0,0-.343.482,1.526,1.526,0,0,0,.181.861,23.208,23.208,0,0,1,1.652,6.162.922.922,0,0,0,.211.646m-.033-17.413c-.492.044-.607.132-.687.552a15.36,15.36,0,0,0-.182,3.066,9.947,9.947,0,0,1-.29,3.388,1.386,1.386,0,0,0-.042.673.719.719,0,0,0,.372-.422,5.306,5.306,0,0,0,.427-1.838c.1-1.114-.075-2.235.066-3.348.088-.684.219-1.361.336-2.071m30.55-.481v-3.387h-3.264c.222.354.44.554.884.48.786-.128,1.053.1,1.2.908.765.132,1.05.789.672,1.578.173.108.249.339.51.42m1.8,29.6c-.113-.283-.364-.3-.6-.3-.955,0-1.91.015-2.865.023a.37.37,0,0,0-.294.1c.014.2.362.221.24.484-1.111-.871-1.129-.879-1.541-.681,1,.325,1.454,1.322,2.422,1.8-.112-.541-.635-.669-.787-1.126.572.337.807,1.139,1.642.957,0-.112,0-.213,0-.315-.019-.737.028-.783.775-.767a1.614,1.614,0,0,0,1.008-.171m-35.141-27.821a7.307,7.307,0,0,0-.024,1.261c.065,1.484.14,2.97.207,4.453a2.509,2.509,0,0,1-.2,1.247,1.083,1.083,0,0,0,0,.84.656.656,0,0,0,.29-.339,3.442,3.442,0,0,0,.386-1.42c.039-1.6-.043-3.2-.108-4.8-.018-.43-.038-.861-.058-1.3l-.49.065m.825-7.277a33.532,33.532,0,0,0-2.98,6.532,1.014,1.014,0,0,0,.609-.471,6.927,6.927,0,0,0,.807-1.519,23.6,23.6,0,0,1,1.649-3.52,1.789,1.789,0,0,0,.292-.809c-.126-.072-.244-.142-.377-.215m39.181,3.179a1.2,1.2,0,0,0,.588.887,2.7,2.7,0,0,0,2.025.334,1.468,1.468,0,0,0,.928-2.086.471.471,0,0,0-.627-.263.481.481,0,0,0-.348.607c.057.326.348.208.543.279a.681.681,0,0,1-.98.138.677.677,0,0,0-.8.017,1.235,1.235,0,0,0,1.046.6c-.023.1-.082.1-.138.112a1.711,1.711,0,0,1-1.223-.23,2.06,2.06,0,0,0-1.012-.4m-12.115-6.509a.7.7,0,0,1,.7-.61,3.628,3.628,0,0,0,.882-.134.456.456,0,0,0,.279-.536c-.033-.229-.251-.15-.4-.17a1.078,1.078,0,0,0-.541.078c-.176.068-.355.131-.549.2a.478.478,0,0,1,.178-.356c.193-.2.4-.375.6-.574a.481.481,0,0,0,.058-.7c-1.009.03-2.169,1.813-2,2.889a.789.789,0,0,0,.842.7c.311-.009.585-.212.56-.445-.034-.308-.284-.317-.52-.327a.706.706,0,0,1-.088-.019M945,9037.089c-.22-.012-.382-.01-.541-.033a.225.225,0,0,0-.273.137,14.1,14.1,0,0,0-.977,2.089,9.4,9.4,0,0,1-.8,2.013,2.421,2.421,0,0,1-1.713,1.272c-.448.073-.654.433-.917.8a3.724,3.724,0,0,0,3.565-2.7,13.044,13.044,0,0,1,1.293-2.887c.128-.2.225-.423.362-.685m12.14-4.175c-.474.429-.493.6-.122,1.024a1.157,1.157,0,0,0,1.612.372c.055.181-.1.306.011.463a3.292,3.292,0,0,0,.905.981.7.7,0,0,0,1.125-.337,2.233,2.233,0,0,0,.124-1.32c-.081-.455-.214-.571-.726-.586a5.54,5.54,0,0,1,.171,1.119c-.007.194.023.428-.207.5s-.389-.1-.5-.282c-.184-.3-.349-.612-.523-.922a.376.376,0,0,1-.291.159c.178-.708.088-1.615-.686-1.593.062.278.141.554.181.835.029.21.078.472-.2.558-.262.08-.4-.122-.507-.317s-.234-.42-.366-.657m16.137-.547c.037-.231.064-.5-.129-.616a1.289,1.289,0,0,0-1.472.208c.173-.494.272-.632.674-.785a.435.435,0,0,0,.321-.577,1.1,1.1,0,0,0-.1-.351.644.644,0,0,0-.378.06,2.553,2.553,0,0,0-1.341,2.762,1.134,1.134,0,0,0,.893.862.591.591,0,0,0,.673-.537c.01-.283-.133-.389-.547-.4a.449.449,0,0,1-.113-.041c.309-.729.979-.452,1.522-.585m-33.855,11.354c-.469.063-.631.3-.578.712a5.769,5.769,0,0,1,.005.588c.033,1.683.2,3.356.326,5.034.042.545-.066,1.08-.033,1.621a.954.954,0,0,0,.289.812,2.3,2.3,0,0,0,.253-1.087c.079-1.789-.119-3.569-.153-5.354-.016-.77-.071-1.539-.109-2.325m3.57-7.211c-.492-.151-.706.082-.907.465a39.79,39.79,0,0,0-1.765,3.854,3.74,3.74,0,0,1-1.254,1.934,1.02,1.02,0,0,0-.429.951,1.677,1.677,0,0,0,.851-.47,4.366,4.366,0,0,0,1.225-1.733,36.66,36.66,0,0,1,2.154-4.692,2.963,2.963,0,0,0,.125-.308m26.781-10.01a1.891,1.891,0,0,0-.217.018,3.253,3.253,0,0,0-2.048,2.637.966.966,0,0,0,1.179.962.447.447,0,0,0,.3-.545c-.028-.271-.222-.238-.406-.237-.087,0-.179.042-.283-.038a1.109,1.109,0,0,1,.878-.514c.331-.04.667-.046,1-.064.307-.017.291-.29.34-.475s-.149-.2-.278-.225a2.018,2.018,0,0,0-.787.038,2.78,2.78,0,0,1-.713.122c.17-.567.711-.677,1.1-.971a.683.683,0,0,1-.074-.708m8.482,17.96c-.21-.577-.405-1.109-.6-1.657-.127.037-.225.062-.319.1-.419.158-.434.185-.282.6.134.368.3.724.418,1.094a.987.987,0,0,1,.013.819c-.125-.212-.045-.535-.378-.578a.63.63,0,0,0-.607.323.567.567,0,0,0,.34.935,1.2,1.2,0,0,0,.579.022,1.665,1.665,0,0,0,1.133-.881,5.107,5.107,0,0,0,.778-2.392l-.542-.147a3.284,3.284,0,0,1-.529,1.767m-8.867-10.784a.87.87,0,0,0-.592.491,4.835,4.835,0,0,0-.283.846,1.016,1.016,0,0,1-.284.576.839.839,0,0,1-.136-.506,3.957,3.957,0,0,1,.19-1.046c.029-.119.094-.244,0-.361-.157-.191-.32-.379-.5-.592a3.089,3.089,0,0,0-.409,2.037,1.983,1.983,0,0,0,1.409,1.852.8.8,0,0,0,.758-.079.4.4,0,0,0-.394-.684c-.088.04-.15.147-.272.109a.954.954,0,0,1,.275-.884.728.728,0,0,0,.249-.549,7.491,7.491,0,0,1-.009-1.211m3.678-5.256c-.435-.262-.9-.038-1.4-.023.563-.735,1.418-.714,2.142-1.047a1.507,1.507,0,0,0-1.123-.338,2.948,2.948,0,0,0-2.308,2.7,1.17,1.17,0,0,0,.051.34.755.755,0,0,0,1.15.39.434.434,0,0,0,.186-.514c-.078-.2-.272-.176-.447-.168-.065,0-.128.07-.206-.008a.648.648,0,0,1,.423-.487,2.433,2.433,0,0,1,.81-.147c.574-.029.632-.087.726-.693m-8.7,8.7c.025-.23.052-.447.074-.662.14-1.466.276-2.933.424-4.4a.976.976,0,0,1,.5-.854c.45-.235.542-.692.721-1.128a1.738,1.738,0,0,0-1.771,1.6c-.044.317-.06.641-.086.962a5.609,5.609,0,0,1-.439,2.32,2.192,2.192,0,0,0-.028,1.864.444.444,0,0,0,.609.3m-3.224,16.946a2.192,2.192,0,0,0-.228.783.956.956,0,0,1-.619.911.833.833,0,0,0-.481.4,5.657,5.657,0,0,1,2.252,1.135.437.437,0,0,0-.085-.428c-.138-.187-.032-.344.043-.512.084-.189.246-.132.388-.131.435,0,.686.292.932.7,0-.548,0-1,0-1.46a.187.187,0,0,0-.148-.2,9.155,9.155,0,0,1-2.055-1.205m17.489-19.033c1.261.748,1.913,2.134,3.2,2.95-.548.065-.833-.366-1.285-.427.048.271-.209.5-.127.707.094.241.423.243.654.314a2.511,2.511,0,0,0,2.041-.127.8.8,0,0,0,.236-1.282.491.491,0,0,0-.6-.134.463.463,0,0,0-.254.549c.014.085.1.161.024.269a2.859,2.859,0,0,1-.832-.652,28.991,28.991,0,0,0-2.232-2.162,1.791,1.791,0,0,0-.9-.435c.219.175.043.3.068.43m-4.843,1.184a1.54,1.54,0,0,1,.375-1.029c.216-.283.46-.546.7-.808a.242.242,0,0,0,.019-.337c-.08-.128-.177-.116-.3-.079a.9.9,0,0,0-.4.263,4.33,4.33,0,0,0-.515.773,2.374,2.374,0,0,1-.438.663,1.017,1.017,0,0,1-.116-.786,4.068,4.068,0,0,1,.581-1.465c.253-.407.176-.641-.242-.867a2.9,2.9,0,0,0-.876,1.45,3.281,3.281,0,0,0-.044,2.2,1.285,1.285,0,0,0,1.744.757c.22-.111.393-.267.294-.543a.475.475,0,0,0-.653-.252c-.039.015-.077.034-.136.059m-19.942,3.554a1.387,1.387,0,0,1,.79.058c.233.087.3.406.591.448.028-.218-.173-.277-.2-.435l.854-.675c.081.074.153.138.215.2.1-.022.145-.142.27-.106l.723.823-.226.236.437.518a6.664,6.664,0,0,1,.115-1.506,2.15,2.15,0,0,1,1-1.081h-4.571Zm22.358-2.462a1.393,1.393,0,0,1-.484-.751,3.37,3.37,0,0,1,0-1.707c.039-.214.022-.365-.24-.437s-.312.117-.385.277a3.392,3.392,0,0,0-.269,1.136c-.033.4-.082.9.2,1.157.332.306.206.719.436,1.013a.6.6,0,0,0,.1.1,1.49,1.49,0,0,0,1.531.164.608.608,0,0,0,.349-.716c-.078-.316-.329-.345-.6-.32a.578.578,0,0,1-.111-.013,2.423,2.423,0,0,1,.249-1.063,2.9,2.9,0,0,0,.257-.889c.025-.441-.043-.506-.541-.493a22.212,22.212,0,0,0-.492,2.545m3.126,4.248c-.213-.224-.269-.514-.567-.463a.465.465,0,0,0-.375.363.71.71,0,0,0,.206.755.927.927,0,0,0,.653.269,1.531,1.531,0,0,0,1.364-.834,2.491,2.491,0,0,0-.445-3.121.9.9,0,0,0-.444.364,1.978,1.978,0,0,1,.4,2.313,3.9,3.9,0,0,0-.58-1.7,3.132,3.132,0,0,0-1.539-.93c.695.858,1.559,1.639,1.326,2.98m-18.766,29.089h7.507v-1.084a2.842,2.842,0,0,1-1.823.4c-.99-.012-1.982.01-2.971-.021a5.488,5.488,0,0,1-2.713-.3Zm9.933-38.009a.523.523,0,0,0-.4.241,3.187,3.187,0,0,0,.017,3.413,1.856,1.856,0,0,0,1.705.716.415.415,0,0,0,.374-.548c-.063-.3-.265-.334-.524-.276-.094.022-.177.107-.285.063-.025-.481.062-.8.392-.961.539-.256.5-.694.491-1.166a1.439,1.439,0,0,0-1.324.914,1.056,1.056,0,0,1-.374.572,1.769,1.769,0,0,1,.015-1.455,2.125,2.125,0,0,0-.086-1.513m-4.892,30.126a16.869,16.869,0,0,0,.025,2.852,2.243,2.243,0,0,0,.638-.111c.246-.127.611-.187.653-.519a2.615,2.615,0,0,1,.481-1.215,10.117,10.117,0,0,1,.771-1.078,3.63,3.63,0,0,0,.505-1.11,12.013,12.013,0,0,1-3.073,1.182m6.012-11.982c-.211.01-.368.059-.4.275a.465.465,0,0,0,.286.5c.329.161.679.282,1,.454.528.282.528.561.022.864a1.351,1.351,0,0,1-.277.138c-.3.095-.594.177-.891.265a1.051,1.051,0,0,0-.852.884,1.565,1.565,0,0,1-.522.949.552.552,0,0,0-.242.4,16.75,16.75,0,0,0,.012,2.028c.54-.308.958-1.2.706-1.448a3.162,3.162,0,0,0,1.638-1.6.229.229,0,0,1,.2-.172c.125-.006.175.1.22.188.1.21.09.472.3.639.356-.43.33-.72-.093-1.142-.317-.318-.572-.316-.961.012-.123.1-.237.221-.36.323-.146.122-.3.174-.459.017a.333.333,0,0,1-.006-.492,1.238,1.238,0,0,1,.674-.395,3.985,3.985,0,0,0,1.075-.354.714.714,0,0,0,.056-1.285,1.961,1.961,0,0,0-.527-.252c-.564-.189-.563-.191-.594-.8m-1.231,17.744a.84.84,0,0,0,.387.434c.344.254.468.229.654-.157a.75.75,0,0,1,.8-.478c.412.034.823.079,1.234.127a2.654,2.654,0,0,0,2.573-1.151,10.194,10.194,0,0,0,1.107-2.061,2.7,2.7,0,0,0,.234-1.346c-.038-.355-.239-.461-.547-.284a1.233,1.233,0,0,0-.706.994c-.038.481-.07.964-.128,1.443a1.864,1.864,0,0,1-.931,1.56,3.471,3.471,0,0,1-2.3.415c-.372-.066-.739-.162-1.11-.234-.588-.114-.722-.018-.8.547-.138.091-.33.021-.463.191m15.139-27.567c.162-.149.427-.145.34-.411a3.032,3.032,0,0,1,.3-2.387,1.026,1.026,0,0,0-.335-1.433.418.418,0,0,1-.138-.609.807.807,0,0,0-.059-.967.775.775,0,0,1-.179-.665,3.637,3.637,0,0,0,.008-1.406.6.6,0,0,0-.447-.53,40.169,40.169,0,0,0-.023,6.214,9.115,9.115,0,0,0,.529,2.194m-42.037,24.72a.892.892,0,0,0,.425-.532,4.226,4.226,0,0,0,.252-1.454,14.652,14.652,0,0,0-.645-4.215c-.574-2.071-1.382-4.065-2.094-6.091a10.709,10.709,0,0,0-.647-1.617,2.129,2.129,0,0,0-.048,1.313c.153.433.294.871.457,1.3.748,1.975,1.552,3.93,2.126,5.966a10.256,10.256,0,0,1,.384,4.232,5.41,5.41,0,0,0-.21,1.1m34.025-26.979c.058.795.655,1.544.014,2.33-.123-.227-.238-.437-.354-.646a7.931,7.931,0,0,0-1.2-1.765.918.918,0,0,0-.6-.37,1.511,1.511,0,0,0,.31,1.044c.263.377.561.729.826,1.1a1.824,1.824,0,0,1,.4,1.084c-.007.392-.191.537-.625.477,0-.133.01-.271,0-.4-.031-.355-.231-.463-.544-.3a.771.771,0,0,0-.088,1.278,1.339,1.339,0,0,0,1.638-.006,2.891,2.891,0,0,0,1-1.493,1.671,1.671,0,0,0-.773-2.338m-2.875,33.793c-.019,1.413.355,1.729,1.621,1.46a9.518,9.518,0,0,0,3.074-1.351,2.812,2.812,0,0,0,.657-.525,15.944,15.944,0,0,1-1.874.349c.2-.249.352-.443.5-.641a1.1,1.1,0,0,0,.341-.684,6.167,6.167,0,0,1-4.323,1.392m-26.536-1.014a8.447,8.447,0,0,0,2.594,1.781,6.411,6.411,0,0,0,2.665.626.648.648,0,0,0,.683-.368,2.621,2.621,0,0,0,.144-.978,7.629,7.629,0,0,1-1.269-.006,6.264,6.264,0,0,1-2.755-1.192,1.877,1.877,0,0,0-.621-.328c.112.46.407.788.524,1.227-.747-.076-1.266-.64-1.965-.762m-8.21-17.691a6.806,6.806,0,0,0,.755-3.108c.065-2.02-.228-4.023-.247-6.04,0-.361,0-.725,0-1.114a2.623,2.623,0,0,0-.706.168c0,.125-.005.263,0,.4.077,1.841.152,3.684.235,5.523a6.962,6.962,0,0,1-.242,2.833,2.1,2.1,0,0,0-.112.608.67.67,0,0,0,.317.73m38.639,15.563c.036-.09.067-.163.095-.235.288-.75.437-.872,1.223-.775a2.445,2.445,0,0,0,2.495-1.188,7.082,7.082,0,0,0,1.008-4.427,2.1,2.1,0,0,0-.211-.9.423.423,0,0,0-.77-.063.952.952,0,0,0-.163.376,4.1,4.1,0,0,0,.116,1.776,6.053,6.053,0,0,1,.179,1.881,1.458,1.458,0,0,1-.9,1.255,8.682,8.682,0,0,0-1.063.567,2.15,2.15,0,0,1-1.078.313c-.344.017-.689.039-1.033.061a.382.382,0,0,0-.4.454c.016.239.041.469-.208.615a.949.949,0,0,0,.707.29m-.153-21.447a1.634,1.634,0,0,1,1.272-.186.232.232,0,0,0,.273-.086,13.347,13.347,0,0,0,1.873-3.429,1.819,1.819,0,0,0,.081-.917.628.628,0,0,0-.648-.547c-.485-.017-.757.222-.945.827a16.269,16.269,0,0,1-1.352,3.15,4.311,4.311,0,0,0-.554,1.187m3.8-4.7a11.113,11.113,0,0,1,1.066-1.951,3.953,3.953,0,0,1-2.11-.763,1.97,1.97,0,0,1-.911,1.782,1.453,1.453,0,0,0-.6.861c-.117.349-.213.7-.307,1.058a11.654,11.654,0,0,1-.6,2.009.624.624,0,0,1-.612.423c-.575-.032-.962.171-1.049.756-.348.086-.461-.22-.7-.337a.607.607,0,0,0,.03.816,1.046,1.046,0,0,0,1.539.055,4.021,4.021,0,0,0,.761-1.02,18.613,18.613,0,0,0,.836-1.963,20.865,20.865,0,0,1,.764-1.956.957.957,0,0,1,1.441-.437,1.16,1.16,0,0,1,.452.667m-32.759-1.672a.626.626,0,0,0-.475.627,2.2,2.2,0,0,1-1.238,2.035c-.127.056-.122.146-.142.245a5.117,5.117,0,0,1-.739,2.131,5.592,5.592,0,0,0-.8,1.665,1.941,1.941,0,0,1-.5.9c-.07-.108-.13-.207-.2-.3a.4.4,0,0,0-.6-.093.5.5,0,0,0,.107.916,1.573,1.573,0,0,0,2.042-.833,9.651,9.651,0,0,1,.782-1.757,2.171,2.171,0,0,0,.371-1.167.469.469,0,0,1,.117-.346,5.739,5.739,0,0,0,1.271-4.021m23,21.541c.315-.043.411.135.463.37a5.034,5.034,0,0,1,.1.785.449.449,0,0,1-.227.456,2.7,2.7,0,0,0-.669.649c-.225.293-.564.458-.741.783-.159.294-.518.427-.675.764a5.841,5.841,0,0,1,.965.127,2.229,2.229,0,0,0,2.549-1.46,3.461,3.461,0,0,0-1.5-3.957c-.171.47.406,1.063-.256,1.482m-15.16-6.692c-.323-.494-.676-.049-1.029-.08-.059-.4-.334-.18-.562-.219a3.167,3.167,0,0,0,.39.8,10.365,10.365,0,0,0,5.214,4.064,5.715,5.715,0,0,0,1.731.435c.142.01.33.055.333-.179.009-.578,0-1.158,0-1.772a1.7,1.7,0,0,1-1.3.216,4.843,4.843,0,0,1-1.143-.652,4.191,4.191,0,0,1,0,1.215c-.366.06-.707-.388-1.083.022-.164-.441-.141-1.018-.8-.838-.141-.429.2-.771.084-1.177a5.053,5.053,0,0,1-1.508-.3c-.218-.086-.536-.112-.6-.343a1.314,1.314,0,0,1,.125-.973c.045-.079.1-.15.143-.213m-15.107-5.661a3.065,3.065,0,0,0,.2.773c.445,1.244.881,2.491,1.216,3.77a9.167,9.167,0,0,1,.417,4.588.259.259,0,0,0,.171.32,8.053,8.053,0,0,0,.206-3.427,33.245,33.245,0,0,0-1.848-6.307c-.009-.025-.038-.047-.053-.064-.109.011-.136.185-.269.112a41.268,41.268,0,0,0,.14-7.7.891.891,0,0,0-.587,1.078,8.45,8.45,0,0,1,.051,1.069,36.163,36.163,0,0,1,.027,4.525,2.95,2.95,0,0,1-.557,1.708c-.334.4-.334.584.016.994a10.045,10.045,0,0,0,.866-1.439m11.7-6.771v3.555h4.768v-3.4a5.065,5.065,0,0,1-1.118.907,10.483,10.483,0,0,1-1.276.536c-.092,1.364-.543,1.9-1.522,1.832a1.375,1.375,0,0,1,.277-1.133c.2-.256.281-.481.051-.771a.7.7,0,0,1-.048-.724c.039-.1.133-.182.1-.32a.973.973,0,0,1-1.232-.485m13.288-10.157a.761.761,0,0,0-.508.342,3.724,3.724,0,0,0-.386.88,1.2,1.2,0,0,1-.394.679,1.731,1.731,0,0,1-.048-1.251c.1-.393.27-.778-.076-1.165.213-.007.253.126.338.2a.924.924,0,0,0,.967.15.462.462,0,0,0,.251-.489c-.032-.227-.207-.278-.4-.311-.074-.014-.159.039-.236-.054.058-.528.464-.772.884-.95.625-.266.763-.852,1.071-1.4-.824.117-1.342.7-2.049,1.053a1.566,1.566,0,0,1,.1-.26c.161-.251.324-.5.494-.746.343-.49.342-.685-.056-1.246a4.8,4.8,0,0,0-1.395,3.908c-.115-.138-.18-.239-.3-.241a4.157,4.157,0,0,0-.461,2.731,1.807,1.807,0,0,0,2.056,1.409c.295-.09.393-.258.3-.508-.116-.31-.291-.385-.586-.245-.071.033-.134.093-.239.069a1.176,1.176,0,0,1,.354-.957c.1-.119.242-.223.253-.4.026-.39.046-.777.071-1.192m-10.77,25.373a3.737,3.737,0,0,0,.018.97c.158.987.338,1.973.474,2.963a3.69,3.69,0,0,1-.2,2.107,1.3,1.3,0,0,1-.447-.709,9.006,9.006,0,0,1-.345-2.036c-.073-.837-.136-1.675-.212-2.512a1.341,1.341,0,0,0-.517-.918c-.007.1-.015.133-.013.166.182,2.2.358,4.4.547,6.606a5.353,5.353,0,0,0,1.361,3.177c.079.09.144.208.325.214a8.269,8.269,0,0,0,.267-2.622,54.7,54.7,0,0,0-1.027-7.271c-.01-.066-.086-.135-.227-.136m13.089.191c-.247.027-.495.074-.743.081a.566.566,0,0,0-.561.356c-.069.152-.131.342-.321.382a3.618,3.618,0,0,1-1.058.127c-.12-.009-.257-.018-.326-.152a.709.709,0,0,1,.355-.869c.135-.047.279-.07.472-.116a3.207,3.207,0,0,1-.63-1.889.327.327,0,0,0-.093-.181.442.442,0,0,1-.063-.514,4.286,4.286,0,0,0,.241-.86,2.572,2.572,0,0,1,.42-1.152.267.267,0,0,0,0-.347,11.075,11.075,0,0,1-1.984,1.024c-.172.068-.115.208-.117.322q-.021,1.417-.029,2.833c-.005.976,0,1.951,0,3a10.538,10.538,0,0,0,4.435-2.043m4.848-11.888c0-.175,0-.31,0-.445,0-.545,0-.544-.507-.657-.145-.033-.292-.061-.434-.107a1.228,1.228,0,0,1-1.03-1.412.806.806,0,0,0-.129-.589c-.123.03-.163.13-.213.216-.1.176-.209.372-.423.362s-.216-.258-.288-.414c-.192-.416-.448-.728-.968-.68a.281.281,0,0,1-.309-.264c-.044-.258-.18-.324-.407-.246v4.236Zm-11.062-9.231h-3.627c.045.289.468.232.457.56-.008.251.051.513-.312.6a4.049,4.049,0,0,1,.837,1.38.328.328,0,0,0,.573.158c.08-.062.143-.152.227-.211a.625.625,0,0,1,.84.118c.187.3-.012.5-.224.672a1.728,1.728,0,0,1-1.022.461c-.61.013-.876.443-1.245.861h3.5Zm-14.119,12.5c-.415.223-.775.439-.868.924a1.907,1.907,0,0,1-.737,1.207,2.071,2.071,0,0,0-.618.776,2.711,2.711,0,0,1-.789.988.694.694,0,0,0-.28.526,3.47,3.47,0,0,1-.676,1.888,1.671,1.671,0,0,0-.323,1.034,6.268,6.268,0,0,1-.223,1.741,5.6,5.6,0,0,0-.069,2.727c.336-.521,4.566-11.382,4.583-11.812m.422,13.521a4.68,4.68,0,0,1-.009-2.086c.22-1.094.627-2.136.884-3.22a1.552,1.552,0,0,0-.119-1.009c-.11.05-.11.139-.131.214-.536,1.89-1.087,3.775-1.489,5.7a12.862,12.862,0,0,0-.357,4.349,1.642,1.642,0,0,0,.329.934l.133-.185c.072-.1.15-.2.215-.312a12.859,12.859,0,0,0,1.332-3.054,45.62,45.62,0,0,0,1.029-5.733,7.234,7.234,0,0,0,.108-1.358,1.187,1.187,0,0,0-.315.584,13.927,13.927,0,0,0-.342,1.794,10.485,10.485,0,0,1-.612,2.644,1.329,1.329,0,0,1-.656.74m3.547-5.048a1.049,1.049,0,0,0-.339.661,22.735,22.735,0,0,0-.279,2.641,10.911,10.911,0,0,1-.348,2.385.87.87,0,0,1-.4.58,1.816,1.816,0,0,1-.365-1.175,12.623,12.623,0,0,1,.32-2.632,11.134,11.134,0,0,0,.318-2.458.843.843,0,0,0-.215-.623c-.031.046-.051.061-.053.079-.188,1.738-.513,3.458-.756,5.188a17.968,17.968,0,0,0-.3,4.4,3.818,3.818,0,0,0,.522,1.84,1.13,1.13,0,0,0,.57-.6,6.135,6.135,0,0,0,.636-1.813,47.612,47.612,0,0,0,.688-8.475m11.938-16.251h4.083c.166,0,.294-.042.318-.237a.258.258,0,0,0-.206-.329c-.26-.086-.576-.211-.571-.523a.753.753,0,0,0-.572-.751c-.18-.078-.191-.2-.182-.359a.349.349,0,0,1,.227-.351c.081-.028.191.011.249-.1a1.465,1.465,0,0,0-.81-.227,1.3,1.3,0,0,1-1.056-.877,4.234,4.234,0,0,1-.171-.736c-.02-.1-.011-.25-.179-.25-.375,0-.751,0-1.13,0Zm8.4,11.37a14.609,14.609,0,0,0,.9-4.856c-1.621-.069-3.181-.085-4.758,0a13.941,13.941,0,0,1-.325,2.339,4.933,4.933,0,0,1,.822.079c.006.134.013.259.019.377.118.083.262-.015.41.11v.963c.634-.5,1.459-.38,2.034-.885a1.17,1.17,0,0,0-.545-.33,5.7,5.7,0,0,1-.727-.311.752.752,0,0,1-.062-1.289.647.647,0,0,1,.686,0c.256.131.094.313.083.478,0,.044,0,.087,0,.133a5.335,5.335,0,0,1,.981.449,1,1,0,0,1,.059,1.69c-.094.076-.223.122-.269.268a5.733,5.733,0,0,0,.692.781m9.736,13.008a.552.552,0,0,0,.784-.313,1.626,1.626,0,0,0,.154-.974,24.585,24.585,0,0,1-.092-2.658c0-.761.005-1.521-.009-2.28-.01-.532-.35-.746-.8-.494a.767.767,0,0,1-.78,0,2.9,2.9,0,0,1-1.667-2.187,8.646,8.646,0,0,1-.042-2.238c.016-.217,0-.44-.274-.476a.472.472,0,0,0-.538.335,1.093,1.093,0,0,0-.054.234,4.131,4.131,0,0,0,.267,2.233,7.144,7.144,0,0,0,2.244,2.711.453.453,0,0,0,.252.1c.671.073.824.219.915.882a8.484,8.484,0,0,1-.077,2.956,4.21,4.21,0,0,1-2.657,3.465.62.62,0,0,1-.54-.007,1.011,1.011,0,0,0-1.52.741c-.008.092-.022.173.067.247a1.832,1.832,0,0,0,1.888.136,1.3,1.3,0,0,1,.648-.295,1.52,1.52,0,0,0,1.369-.9,8.744,8.744,0,0,0,.465-1.216m-28.709,2.654a1.323,1.323,0,0,0,.307-.5,9.038,9.038,0,0,0,.611-2.889,38.006,38.006,0,0,0-.319-6.135,5.975,5.975,0,0,0-.182-1.226,1.185,1.185,0,0,0-.2.518,10.259,10.259,0,0,0,.041,2.445,11.4,11.4,0,0,1,.035,2.757.95.95,0,0,1-.455.771,1.21,1.21,0,0,1-.443-.8,9.112,9.112,0,0,1-.215-1.78c-.04-1.049-.02-2.1.02-3.146a1.173,1.173,0,0,0-.282-.952,36.138,36.138,0,0,0-.2,7.624,7.223,7.223,0,0,0,.616,2.6,1.383,1.383,0,0,0,.658.712m-1.358-21.209c0,.126,0,.229,0,.329a17.115,17.115,0,0,0,.486,4.071,11.835,11.835,0,0,0,8.331,8.9,4.975,4.975,0,0,0,2.1.227c0-2.2,0-4.363,0-6.528,0-.234-.089-.344-.365-.325v6.3a3.657,3.657,0,0,1-1.173-.089,11.279,11.279,0,0,1-5.492-3.079,10.807,10.807,0,0,1-2.469-4.141,15.035,15.035,0,0,1-.892-5.277h4.972a.521.521,0,0,0-.007-.39Zm6.438-9.942c-.022-.3-.215-.337-.385-.373a1.115,1.115,0,0,0-.969.343,1.9,1.9,0,0,0-.548,1.834.722.722,0,0,1-.34.749,6.619,6.619,0,0,0-1.956,2.019,1.236,1.236,0,0,1-.312.366.369.369,0,0,1-.574-.049.716.716,0,0,1-.089-.531,9.62,9.62,0,0,1,.471-1.582,1.369,1.369,0,0,0-.219-1.243.513.513,0,0,0-.529-.253.183.183,0,0,0-.163.191c0,.241.179.332.363.407a.56.56,0,0,1,.362.694,5.622,5.622,0,0,1-.15.6,6.889,6.889,0,0,0-.356,1.328.655.655,0,0,0,.281.724.691.691,0,0,0,.775-.1c.172-.119.334-.25.514-.389a1.228,1.228,0,0,1-.317,1.121.538.538,0,0,0-.054.694c.3.457.294.5-.038.933a.822.822,0,0,0-.256.679.846.846,0,0,0,.821-.905,2.4,2.4,0,0,0,0-.448,1.028,1.028,0,0,1,.375-.953,2.755,2.755,0,0,0,1.1-1.98,1.792,1.792,0,0,0,1.335-.521c-.222-.135-.427.024-.6-.1a.647.647,0,0,1,.385-.181,13.574,13.574,0,0,1,1.58-.123,3.611,3.611,0,0,0,1.5-.369.714.714,0,0,0,.414-.408.417.417,0,0,0-.538.124.7.7,0,0,1-.777.218,5.153,5.153,0,0,1-.767-.2,2.348,2.348,0,0,1-1.122-.829c.421.022.636.429,1.021.383.148-.719.03-.916-.651-1.086a.7.7,0,0,1-.594-.733c.167.1.239.281.361.415a.276.276,0,0,0,.344.068c.111-.048.211-.116.217-.244s-.1-.2-.208-.245-.224-.064-.246-.2c.205-.095.341.078.55.152m-6.429-1.39v10.895h5.546a1.2,1.2,0,0,0-.054-.535h-5.09v-9.875c.647-.045,9.759-.038,10.081.014v4.942c.144-.03.247.02.341-.055v-5.376c-.323-.037-10.473-.049-10.824-.01m18.874,1.582c.034.229.38.341.189.6a.762.762,0,0,1-.725.253c-.015-.113-.033-.213-.042-.313-.071-.764-.329-1.036-1.1-1.163a11.574,11.574,0,0,0-2.311-.066c-.445.017-.889.066-1.341.1a.545.545,0,0,0,.385.551,2.19,2.19,0,0,0,.783.1,7.381,7.381,0,0,1,1.85.191.689.689,0,0,1,.559.584.635.635,0,0,0,.363.5c.38.216.423.369.308.8a1.5,1.5,0,0,0-.089.651,1.589,1.589,0,0,0,.688-.081.521.521,0,0,1,.677.249,1.058,1.058,0,0,0,.532.522c.5.169.562.54.541.984-.016.311-.015.623,0,.933a3.011,3.011,0,0,0,.178,1.084.911.911,0,0,0,.723.626,17.057,17.057,0,0,1,.026-2.343,8.8,8.8,0,0,0,.014-1.416,1,1,0,0,0-.919-1.028c-.113-.023-.227-.044-.338-.066a.189.189,0,0,1-.169-.222.562.562,0,0,1,.291-.48c.172-.093.306-.013.42.124a.188.188,0,0,0,.182.076c.119-.582-.13-.867-.8-.916-.249-.729-.249-.729-.877-.835m3.124,9.3v-10.874H964.369v5.387a.345.345,0,0,0,.359-.056v-4.871h9.918v9.964h-5.025c.017.17-.037.31.054.45Zm-.527.789a1.117,1.117,0,0,1,.089.55,11.987,11.987,0,0,1-.415,3,11.83,11.83,0,0,1-8.246,8.862,3.055,3.055,0,0,1-1.313.189v-6.247c-.295,0-.386.111-.385.379.013,1.925.008,3.85.014,5.773a2.33,2.33,0,0,0,.033.694c.246,0,.488.019.727,0a5.3,5.3,0,0,0,1.251-.238,13.47,13.47,0,0,0,7.258-5.964,13.122,13.122,0,0,0,1.531-7.3c0-.03-.027-.06-.035-.076h-5.455a.521.521,0,0,0,.01.379Zm-24.4-21.736c.407-.765,1.857-.994,2.27-.4-.421.095-.835-.185-1.341-.026a3.058,3.058,0,0,0,1.561.22c.186-.026.407-.067.415-.332s-.161-.367-.371-.432a3.628,3.628,0,0,0-1.439-.075,3.287,3.287,0,0,1-.881,0,4.032,4.032,0,0,1,2.9.057c.008.181.243.406.1.7-.131.277-.41.34-.654.477a5.319,5.319,0,0,1,.655.9c.065.143.184.114.294.1a1.477,1.477,0,0,0,1.283-.909,1.328,1.328,0,0,0,1.845-1.132,3.2,3.2,0,0,0,1.041.036.908.908,0,0,0,.745-.541.285.285,0,0,0-.143-.422,15.442,15.442,0,0,0-3.871-1.511,1.078,1.078,0,0,0-.847.013,5.535,5.535,0,0,0,1.2.478c-.285.557-.73.7-1.4.4a1.009,1.009,0,0,0-1.159.063.382.382,0,0,1-.485.029,1.132,1.132,0,0,0-1.171-.126,1.3,1.3,0,0,0-1.081.9,1.643,1.643,0,0,0,.533,1.524m8.823,15.86a1.69,1.69,0,0,0-.019.174c0,2.017-.015,4.034.008,6.049a4.53,4.53,0,0,0,.9,2.843,9.278,9.278,0,0,0,3.9,2.814.993.993,0,0,0,.706.017,9.271,9.271,0,0,0,2.61-1.3,4.67,4.67,0,0,0,2.109-3.735c.095-2.258-.009-4.515,0-6.772,0-.019-.017-.038-.041-.084Zm25.906-3.185-.086-.007a2.1,2.1,0,0,1-.316.394.305.305,0,0,0-.036.5,1.083,1.083,0,0,1,.188,1.067,9.182,9.182,0,0,1-.995,2.6,1.058,1.058,0,0,0-.023,1.183c1.426,2.521,2.832,5.054,4.253,7.578a3,3,0,0,0,.651.871.29.29,0,0,0,.1-.2,10.776,10.776,0,0,0-.177-5.46,28.208,28.208,0,0,0-2.067-4.842,11.305,11.305,0,0,1-1.488-3.688m-7.288,23.6c-.029.279-.037.522-.08.76a8.626,8.626,0,0,1-1.116,2.654,3.519,3.519,0,0,1-2.135,1.688c-.4.124-.831.184-1.062.6,0,0-.04-.007-.07-.014.041-.3.016-.58-.321-.716a1.8,1.8,0,0,0-.634-.148,1.135,1.135,0,0,0-.846.718.138.138,0,0,0,.016.1c.243.259.478.579.846.607a3.812,3.812,0,0,1,1.193.309,1.182,1.182,0,0,0,1.433-.343,6.933,6.933,0,0,0,.827-1.212c.149.128.236.067.339-.075a22.732,22.732,0,0,0,1.78-2.99,10.035,10.035,0,0,0,.894-1.858c.139-.5.01-.756-.479-.893a1.23,1.23,0,0,1-.788-.665,5.76,5.76,0,0,1-.632-2.519,4.077,4.077,0,0,1,3.5-4.354.316.316,0,0,1,.4.192,5.57,5.57,0,0,0,4.3,3.054,4.626,4.626,0,0,0,3.523-1.2c.089-.073.217-.149.127-.312a.834.834,0,0,0-1.181-.269,3.247,3.247,0,0,1-4.489-.4,7.983,7.983,0,0,1-1.72-3.337,33.3,33.3,0,0,0-1.258-3.967c-.093-.208-.16-.2-.313-.1a1.478,1.478,0,0,0-.191,1.7,1.3,1.3,0,0,1,.2,1.174.343.343,0,0,0,.049.353c.493.586.5.853.092,1.5a4.377,4.377,0,0,1-1.8,1.566,10.927,10.927,0,0,0-1.795,1.09.886.886,0,0,0-.368,1,4.563,4.563,0,0,1,.081,1.92,3.811,3.811,0,0,0,.54,2.9,3.642,3.642,0,0,0,1.372,1.371c.014.006.017.037.031.073l-.257.043m-34.446,2.111.063.006c.046-.3.1-.6.136-.9a9.275,9.275,0,0,0-.069-3.5c-.613-2.277-1.436-4.481-2.228-6.7a10.736,10.736,0,0,0-.586-1.445.561.561,0,0,0-.284.767c.389.982.781,1.963,1.155,2.952a36.983,36.983,0,0,1,1.8,5.637,2.437,2.437,0,0,1,.017,1.392,52.584,52.584,0,0,0-2.47-6.727c-.714-1.694-1.421-3.388-1.973-5.144a18.96,18.96,0,0,1-.839-8.043,20.4,20.4,0,0,1,2.89-8.16,16.72,16.72,0,0,1,3.72-4.416.46.46,0,0,1,.4-.138,5.052,5.052,0,0,0,2.288-.13.215.215,0,0,1,.272.062,1.072,1.072,0,0,0,.96.373,1.022,1.022,0,0,1,1.094.464,1.752,1.752,0,0,0,1.1.585,4.438,4.438,0,0,1-1.243,2.791.933.933,0,0,0,.739-.493,7.636,7.636,0,0,0,1.3-3.017,1.909,1.909,0,0,0-1.461-2.315,4.887,4.887,0,0,0-2.461-.021,10.628,10.628,0,0,0-4.974,2.966,17.012,17.012,0,0,0-3.3,4.816,18.3,18.3,0,0,0-1.5,12.327,42.1,42.1,0,0,0,2.137,6.47c.97,2.456,1.991,4.895,2.763,7.424.212.7.373,1.408.558,2.111m7.243-26.856a1.562,1.562,0,0,1,.08,1.019c-.081.467-.276.9-.393,1.356a.8.8,0,0,0,.365,1.043.348.348,0,0,1,.153.454,5.929,5.929,0,0,0-.224,2.152.944.944,0,0,0,1.407.856,1.179,1.179,0,0,1-.693-.81,3.147,3.147,0,0,1,.005-.964c.137-.862.362-1.708.558-2.56a10.794,10.794,0,0,0,.383-3.45,2.242,2.242,0,0,0-1.576-2.127,2.371,2.371,0,0,0-2.053.451c-.361.26-.793.389-1.14.668a.69.69,0,0,1-.5.1c-.262-.019-.389-.131-.356-.422a1.836,1.836,0,0,1,.408-.858.936.936,0,0,0,.289-.634c-.345.474-.858.6-1.216.954a1.826,1.826,0,0,1-.733.444c-.475.146-.78-.133-.678-.611a4.279,4.279,0,0,1,.561-1.177,1.042,1.042,0,0,0,.2-.4,4.533,4.533,0,0,0-1.278.909,2.225,2.225,0,0,1-.977.564c-.528.15-.809-.1-.711-.645a3.427,3.427,0,0,1,.514-1.085,1.315,1.315,0,0,0,.249-.663,3.688,3.688,0,0,0-1.23,1.944.746.746,0,0,0,.774.854,1.7,1.7,0,0,0,1.128-.451c.238-.189.456-.4.745-.659-.094.363-.273.606-.327.9a.7.7,0,0,0,.944.848,2.577,2.577,0,0,0,.849-.519c.087-.073.14-.219.343-.181-.13.392-.326.822.071,1.14s.754-.073,1.212-.239a7.019,7.019,0,0,0-.778,1.408,24.212,24.212,0,0,0-1.162,4.322,21.222,21.222,0,0,1-.837,3.34c-.092.253-.3.45-.334.747a1.9,1.9,0,0,0,1.289-.37,1.2,1.2,0,0,1-1.618.395c.045-.04.085-.073.122-.109a.369.369,0,0,0,.063-.474.36.36,0,0,0-.345-.24c-.192.009-.275.151-.346.3-.191.39.081.835.608.956a2.005,2.005,0,0,0,2.029-.742,4.057,4.057,0,0,0,.934-2.081,1.063,1.063,0,0,1,.589-.828,1.56,1.56,0,0,0,.923-1.432,1.068,1.068,0,0,1,.585-1,2.1,2.1,0,0,0,1.086-1.558c.035-.272.029-.55.042-.823m30.755,27.771a.734.734,0,0,0,.954-.377,1.46,1.46,0,0,0,.16-.522,5.134,5.134,0,0,0-.256-1.973,2.315,2.315,0,0,1,.323-2.391c-1.845-1.33-3.132-2.927-2.644-5.384a2.2,2.2,0,0,0-.919.312,3.95,3.95,0,0,0-1.617,3.76.749.749,0,0,0,.449.563,13.432,13.432,0,0,1,2.682,1.48,1.39,1.39,0,0,1,.563.838,9.177,9.177,0,0,1,.148,2.646,1.152,1.152,0,0,1-.352.728,3.038,3.038,0,0,1-2.542,1c-.3-.023-.551.027-.654.359a1.512,1.512,0,0,1-.487.911c.461.43.671.379.79-.187a.835.835,0,0,1,.761-.724c.159-.023.318-.05.478-.074a6.742,6.742,0,0,0,1.838-.434c.245-.111.394-.248.332-.535Zm-28.7-19.574c.1-.05.175.093.285.057a.452.452,0,0,0-.333-.5.928.928,0,0,0-.964.313c-.493.48-.273.951.088,1.408-.821.233-1.266-.382-1.827-.722-.058.312,0,.611-.291.785-.272.162-.534-.035-.8-.017a.88.88,0,0,0-.1.407,1.579,1.579,0,0,0,.727,1.3,14.6,14.6,0,0,1,1.566,1.241c.5.52.789,1.019.155,1.667a.475.475,0,0,0-.079.661c.19.212.332.4.188.7.5-.037.572-.159.357-.553-.038-.07-.082-.14-.125-.206a.7.7,0,0,1,.042-.919.607.607,0,0,0,.1-.61,3.5,3.5,0,0,0-.722-1.324.43.43,0,0,1,.346.239,3.583,3.583,0,0,1,.486.983.841.841,0,0,1-.1.818.541.541,0,0,0,.091.795c.129.122.289.247.21.469-.034.1-.092.2.015.282.083.063.184.018.263-.021.13-.063.114-.187.088-.3a2.175,2.175,0,0,0-.307-.613.582.582,0,0,1,0-.681,1.237,1.237,0,0,0-.072-1.535c-.249-.371-.537-.715-.807-1.07l.03-.029a5.445,5.445,0,0,1,1.417,1.923.278.278,0,0,1-.094.378.66.66,0,0,0-.011,1.132c.126.118.217.216.089.4-.081.119-.107.321.066.386a.5.5,0,0,0,.516-.2c.144-.147.338-.333.224-.526a.555.555,0,0,1-.043-.477.4.4,0,0,0-.033-.364,1.386,1.386,0,0,1-.187-1.154,1.918,1.918,0,0,0-.238-1.295c-.081-.139-.143-.288-.225-.425-.151-.25-.126-.437.15-.584.208-.111.441-.293.334-.537a10.917,10.917,0,0,1-.514-1.637.553.553,0,0,0,.049-.047m27.317,17.507c-.107-.124.045-.172.081-.246a.707.707,0,0,0,.083-.624.353.353,0,0,0-.346-.238c-.08,0-.165,0-.2.093-.068.173.076.244.162.345.01.013,0,.043,0,.056-.229.258-.59.037-.857.251.169.256.453.066.656.176-.186.41-.779.057-.963.515a1.736,1.736,0,0,0,1.133-.236c.048-.029.108-.158.188-.026l-.354.381.232.136c-.212.4-.61.558-.954.8.211.145.136.271.013.395a3.2,3.2,0,0,1-.978.569,1.085,1.085,0,0,0-.584.4,14.223,14.223,0,0,1-2.246,2.83.958.958,0,0,0-.31.442,7.081,7.081,0,0,1,1.372,0c.44.056.561.194.588.617.009.149.014.3.036.446.038.246.137.367.42.252a10.6,10.6,0,0,0,2.178-1.231.458.458,0,0,1-.27-.4c-.025-.144-.047-.332-.225-.349-.158-.016-.206.152-.259.282a.255.255,0,0,1-.27.17c-.161,0-.164-.135-.2-.237a1.934,1.934,0,0,0-.174-.52c-.107-.146-.246-.2-.352-.028-.067.109-.122.206-.251.176a.324.324,0,0,1-.263-.278c-.046-.245-.117-.485-.175-.729a.343.343,0,0,1,.126-.371,1.077,1.077,0,0,0,.357-.6.906.906,0,0,1,1.058-.728,5.606,5.606,0,0,0,.69-.007,1.965,1.965,0,0,0,1.833-1.905,12,12,0,0,0-.107-1.895,1.215,1.215,0,0,0-.5-.869,7.6,7.6,0,0,0-2.125-1.188,1.458,1.458,0,0,0-.747-.129c.1.221.177.423.271.618.173.357.363.737.765.846a.815.815,0,0,1,.634.893c.007.184.03.371.259.438.021-.07.045-.137.058-.2.036-.189.078-.367.331-.355a.458.458,0,0,1,.469.329.808.808,0,0,1-.282.942m-5.562-35.273c.012.024.025.049.038.073a3.354,3.354,0,0,0-.369,2.992c.106-.521.094-.983.212-1.427.176-.659.368-1.015.67-1.1-.046.07-.083.124-.118.18a3,3,0,0,0-.118,3.315c.077.133.14.3.323.333l.061.031,0-.079a5.747,5.747,0,0,1-.348-1.29,2.1,2.1,0,0,1,.5-1.548,3.153,3.153,0,0,0-.3,1.833c.145.85.477,1.35,1.037,1.5-.084-.163-.163-.3-.225-.442a2.368,2.368,0,0,1,.189-2.585c.088.1-.02.159-.056.224a2.192,2.192,0,0,0,.55,2.8c.033.025.083.044.118-.011,0-.011.011-.022.007-.03-.019-.04-.04-.079-.061-.119a2.321,2.321,0,0,1-.286-1.674,4.819,4.819,0,0,1,.434-1.082.76.76,0,0,0,.152-.425c-.251-.229-.437.093-.656.046,0-.092.076-.138.123-.2.1-.135.255-.251.169-.452-.094-.217-.281-.079-.426-.105-.014,0-.024-.03-.047-.062.143-.147.41-.276.307-.515-.173-.4-.539-.02-.817-.145.134-.065.253-.125.37-.186.086-.046.158-.106.133-.217s-.12-.129-.215-.131c-.133,0-.265,0-.425,0,.147-.1.37-.062.4-.293-.22-.239-.525-.153-.858-.188.2-.122.412-.092.545-.244-.044-.262-.24-.317-.456-.31a1.91,1.91,0,0,0-1.64,1.042,2.057,2.057,0,0,0-.14,1.8,4.657,4.657,0,0,1,.615-1.537c.016.016.032.031.05.047a2.351,2.351,0,0,0-.252,2.213,4.261,4.261,0,0,0,.153-.554,2.8,2.8,0,0,1,.655-1.481m-24.271,28.38a2.108,2.108,0,0,0-.456,1.06,14.106,14.106,0,0,1-1.173,3.41,1.6,1.6,0,0,1-.486.637,1.1,1.1,0,0,1-.111-.65,8.739,8.739,0,0,1,.48-1.863c.306-.927.678-1.831.9-2.783a1.113,1.113,0,0,0-.011-.876.561.561,0,0,0-.075.116,61.252,61.252,0,0,0-2.22,6.258,12.129,12.129,0,0,0-.494,3.162,1,1,0,0,0,.206.705.691.691,0,0,0,.319-.321,13.186,13.186,0,0,0,1.617-3.226c.591-1.766,1-3.583,1.515-5.369.022-.079.081-.179-.018-.256l.019.014-.016-.017m8.8,6.836.049-.009-.019-.018a.474.474,0,0,0-.034.041c.087-.171-.061-.272-.13-.386-.175-.282-.382-.546-.556-.828a.887.887,0,0,1-.181-.664c.13,0,.2.139.368.1-.329-.754-.552-1.542-.949-2.257.059.6.154,1.183.259,1.765a26.934,26.934,0,0,1,.573,5.1,6.039,6.039,0,0,1-.624,2.589,4.385,4.385,0,0,1-1.823-2.137,5.08,5.08,0,0,1-1.116,2.647c.792-.06,1.487-.137,2.183-.156a1.493,1.493,0,0,0,1.219-.559,8.112,8.112,0,0,1,.724-.69c.116-.11.269-.216.3-.373a2.127,2.127,0,0,1,.8-1.352c-.283-.592-.877-.878-1.192-1.408.242-.09.438.043.662.019-.048-.187-.2-.271-.3-.384a1.877,1.877,0,0,1-.519-.722c-.089-.3.007-.386.315-.317m-11-8.624c-.043.094-.092.184-.126.279a40.012,40.012,0,0,1-1.656,4.008,10.36,10.36,0,0,0-.929,2.841,4.534,4.534,0,0,0-.068,1.535,2.63,2.63,0,0,0,1.032-1.219,41.862,41.862,0,0,0,2.768-6.489,1.183,1.183,0,0,0,.1-.583,1.617,1.617,0,0,0-.616,1.006,21.332,21.332,0,0,1-1.335,3.319,1.4,1.4,0,0,1-.528.639,3.292,3.292,0,0,1,.223-1.482c.334-1.122.812-2.2,1.1-3.335a.7.7,0,0,0,.028-.525l.034.042.021-.019-.054-.017m21.2,1.153-.059-.051c.378-.11.365-.382.295-.688a8.6,8.6,0,0,0-.422-1.27.792.792,0,0,0-.795-.543.761.761,0,0,0-.761.584c-.149.561-.275,1.129-.417,1.724.39-.036.374.309.506.524.154-.073.317-.2.361.084-.019.016-.036.033-.054.049a.262.262,0,0,0-.317.055c-.081.107.006.218.054.319.136.29.4.247.655.224a3.9,3.9,0,0,1-.414,1.148c-.1.207-.217.334-.467.308s-.364.094-.312.364c.394.039.81.132,1.062-.275a12.429,12.429,0,0,0,1.04-1.677c.083.2.215.172.346.129.157-.051.111-.186.107-.292a2.3,2.3,0,0,0-.026-.643l-.382-.073m13.206-2.45c-.014-.015-.038-.044-.041-.042-.039.03-.031.055.014.068a.425.425,0,0,0,.054.266c.986,1.915,2.848,2.911,5.029,1.827.145-.072.282-.159.262-.354a13.558,13.558,0,0,1-2-.63,3.244,3.244,0,0,0-1.177-.37,3.7,3.7,0,0,1-2.073-.755c-.015-.014-.044-.009-.067-.011m-2.576-17.337c-.132-.189.2-.1.136-.269a.92.92,0,0,0-.608-.3,1.071,1.071,0,0,0,.1.62c.209.136.184-.223.371-.052l-.269.45a.983.983,0,0,1-.427-.688,13,13,0,0,0-.266-1.314.921.921,0,0,0-1-.706c.358.926,1.076,1.742.86,2.869-.369-.2-.471-.537-.635-.833a1.419,1.419,0,0,0-.675-.759,2.3,2.3,0,0,0-.187.607,1.352,1.352,0,0,1,.86.826,1.613,1.613,0,0,0,1.976.708.642.642,0,0,0,.448-.693c-.061-.319-.3-.476-.692-.462m-33.837,16.293.079.059a.757.757,0,0,0-.1.75,1.138,1.138,0,0,0,.527-.511,3,3,0,0,0,.409-1.72,7.531,7.531,0,0,0-.364-2.375.4.4,0,0,0-.306.287.817.817,0,0,0,.022.376.569.569,0,0,1-.01.431c-.124-.293-.084-.572-.214-.795-.23-.021-.338.064-.306.3.022.148.028.3.048.446a5.087,5.087,0,0,1,.041,2.422,1.359,1.359,0,0,0-.005.391l.178-.058m40.9-16.913c-.478-.205-.533-.323-.331-.744a.9.9,0,0,0-.038-1.01,1.337,1.337,0,0,1-.271-1.027,2.762,2.762,0,0,0-.2-1.385,1.331,1.331,0,0,0-1.542-.664.464.464,0,0,0-.323.446.434.434,0,0,0,.3.381c.334.145.518-.058.487-.53a1.159,1.159,0,0,1,.95,1.115,9.043,9.043,0,0,1-.016,1.275.636.636,0,0,0,.115.456.843.843,0,0,1,.087,1.081c-.152.243-.083.375.133.525a1.191,1.191,0,0,1,.515.861,2.15,2.15,0,0,0,.075.3c.265-.039.284-.205.278-.409-.006-.254-.206-.434-.229-.678.108-.061.215.143.332-.009a2.565,2.565,0,0,0,.645-1.692,2.779,2.779,0,0,0-.882-.068c-.1.019-.172.049-.153.178a.139.139,0,0,0,.161.135c.08,0,.161.009.241.009.267,0,.307.129.226.358a1.866,1.866,0,0,1-.442.649.417.417,0,0,0-.121.449m-3.941,17.27a1.871,1.871,0,0,0,.925.226,13.346,13.346,0,0,1-2.338-2.014,4.269,4.269,0,0,0,.627,1.192c-.108.155-.19-.061-.29.032a.846.846,0,0,0,.282.775,3.886,3.886,0,0,0,2.555.979c.056-.134-.059-.2-.048-.291.154-.1.191.07.261.127a5.6,5.6,0,0,0,1.433.881,2.627,2.627,0,0,0,1.243.23c-.346-.329-.541-.729-.937-.835a3.822,3.822,0,0,1-1.605-.9,13.848,13.848,0,0,1-2.538-3.492c.178-.04.2.089.247.166q.606.943,1.3,1.827a8.584,8.584,0,0,0,1.747,1.8c.218.154.475.37.707.31.274-.071.343.078.463.208a7.64,7.64,0,0,0,2.228,1.772,3.574,3.574,0,0,0,1.381.395,1.766,1.766,0,0,0-.338-.508,8.281,8.281,0,0,1-.886-1.221c.166-.1.185.171.376.115.355-.669,1.217-.931,1.572-1.687-.215-.053-.4.035-.592-.052.272-.418.795-.634.846-1.193-.263-.027-.474.193-.748.122a3.6,3.6,0,0,0,.951-1.652c-.272,0-.431.226-.725.294a3.423,3.423,0,0,0,.651-1.868c-.308-.067-.452.293-.769.235.147-.252.287-.475.409-.708a1.23,1.23,0,0,0-.067-1.364.449.449,0,0,0-.462-.169.333.333,0,0,0-.254.258c-.043.2.12.278.255.362.151.094.259.229.206.4s-.241.184-.4.211c-.185.03-.262-.067-.327-.225-.75-1.8-1.6-3.56-2.508-5.29-.26-.5-.511-1-.771-1.5a1.726,1.726,0,0,0-.6.318,7.548,7.548,0,0,0,.565,1.382c.591,1.193,1.269,2.34,1.747,3.593a11.844,11.844,0,0,1,.728,6.363c-.108.615-.446,1.212-.206,1.867-.118-.016-.152-.122-.2-.2-.695-1.058-1.4-2.11-2.03-3.207-1.031-1.793-1.974-3.638-3.045-5.409a6.006,6.006,0,0,0-.728-1.068c-.249.129-.252.289-.133.493.3.506.584,1.017.875,1.524,1.388,2.426,2.741,4.872,4.348,7.164.336.478.665.959.994,1.433a.154.154,0,0,1-.181.028,3.192,3.192,0,0,1-1.321-.782,18.872,18.872,0,0,1-3.734-5.1c-.025-.045.005-.058.028-.079.346.511.687,1.028,1.04,1.534a24.058,24.058,0,0,0,2.967,3.671,2.111,2.111,0,0,0,.885.585,1.5,1.5,0,0,0-.489-.666,11.307,11.307,0,0,1-1.466-1.556,36.423,36.423,0,0,1-2.852-4.146c-.114-.189-.226-.37-.491-.329-.035.257.264.4.206.648a2.826,2.826,0,0,1-.363-.569.629.629,0,0,0-.654-.325c.008.105.145.164.054.272a.729.729,0,0,0-.558-.178,1.566,1.566,0,0,1-1.509-.719.32.32,0,0,0-.439-.141,12.122,12.122,0,0,1,1.143-1.087s.029.024.046.038a.436.436,0,0,0,.053.469,3.727,3.727,0,0,0,2.918,1.462.86.86,0,0,0-.782-.706,2.246,2.246,0,0,1-1.558-.925,1.473,1.473,0,0,0-.362-.409l-.279.117c-.063-.159.091-.206.16-.283a14.645,14.645,0,0,0,1.7-2.2,7.938,7.938,0,0,0,1.137-2.977.909.909,0,0,0-1.288-.958c.374.276.867.463.8,1.1l-.181-.106c-.448-.251-.62-.2-.84.255a4.946,4.946,0,0,0-.38,1,12.294,12.294,0,0,1-2.3,4.585.645.645,0,0,1-.781.251.959.959,0,0,0-1.291.688,1.141,1.141,0,0,1-.515.655c-.269.176-.542.349-.806.53a1.1,1.1,0,0,0-.515.541,1.35,1.35,0,0,1-.671.783c-.366.234-.408.43-.239.817.141.321.414.646-.1.915a1.173,1.173,0,0,0,1.463-1.308,1.272,1.272,0,0,1,.635-1.308c-.144.237-.256.414-.361.6a.626.626,0,0,0-.114.547,1.209,1.209,0,0,1-.421,1.326,2.469,2.469,0,0,0-.536.487c.278.045.481,0,.512-.289.17-.044.319.057.465-.023a1.91,1.91,0,0,0,.63-1.392c-.266-.668.178-1.07.494-1.528a1.971,1.971,0,0,1-.287.71c-.07.159-.175.331-.073.492.374.587.109,1.016-.307,1.431a1.287,1.287,0,0,0-.451.817c.215.032.415.017.472-.2.071-.263.257-.326.491-.358a.734.734,0,0,1,.246-.479,1.058,1.058,0,0,0,.187-1.273.919.919,0,0,1,.419-1.2c-.364.589-.114,1.167-.025,1.749a.842.842,0,0,1-.234.732,2.186,2.186,0,0,0-.457.717c-.2.473-1.034.792-1.371.5a.662.662,0,0,0-.682-.124.457.457,0,0,1-.483-.075c-.294-.3-.385-.26-.545.146-.217.549-.323,1.131-.567,1.67a11.09,11.09,0,0,1-2.191,3.162,1.121,1.121,0,0,0-.205,1.39,4.69,4.69,0,0,0,.677,1c.46.546.922,1.089,1.383,1.635a3.117,3.117,0,0,1,.287,3.705,2.07,2.07,0,0,1-2.425,1.24,6.046,6.046,0,0,0-1.124-.174.713.713,0,0,0-.713.442.788.788,0,0,1-.378.461c.058.178.272.181.3.355-.106.029-.225-.077-.336.047a.6.6,0,0,0,.186.6.44.44,0,0,0,.139-.657c.278.061.428-.092.55-.316.316-.58.535-.68,1.174-.55q.3.062.6.145a3.152,3.152,0,0,0,2.12-.093c-.026-.183-.273-.254-.2-.463.693.443,1.109.288,1.361-.5a1.5,1.5,0,0,0,.071-.3c.048-.493.086-.986.134-1.479a1.869,1.869,0,0,1,1-1.622l.113-.057c-.054-.085-.077-.125-.1-.162-.063-.083-.133-.16-.189-.246a3.585,3.585,0,0,1-.894-2.961,3.018,3.018,0,0,0,.063-.617,4.273,4.273,0,0,0-.471-2.65c.331,0,.329,0,.534-.224.07-.075.153-.14.229-.21a12.623,12.623,0,0,1,2.249-1.4,3.873,3.873,0,0,0,1.279-1.086.964.964,0,0,0,.207-.839.426.426,0,0,0-.286-.32c-.166-.049-.249.082-.326.2-.051.071-.076.175-.228.109.153-.245.3-.482.452-.721a.925.925,0,0,0-.278-1.412,2.47,2.47,0,0,0,.014-1.059c-.1-.068-.2.108-.306,0,.1-.114.2-.229.308-.329a5.451,5.451,0,0,1,1.062-.954.684.684,0,0,0,.133.613,2.267,2.267,0,0,0,2.437.742c.036-.087-.091-.162-.017-.252.077,0,.088.065.114.109.718,1.2,1.478,2.382,2.257,3.546.384.575.784,1.139,1.178,1.708a3.929,3.929,0,0,1-1.26-.9,19,19,0,0,1-2.583-3.521c-.1-.169-.208-.3-.436-.212.032.1.111.194.006.324a1.051,1.051,0,0,0-.967-.546,17.086,17.086,0,0,0,3.152,4.689,3.673,3.673,0,0,1-1.564-.58l.045-.049m-39.132-3.878c-.144-.1,0-.188.03-.269a6.6,6.6,0,0,0,.431-1.908.531.531,0,0,0-.479-.616,1.19,1.19,0,0,0-.033.173,4.1,4.1,0,0,1-.79,2.484c-.206.262-.1.536.109.772a1.069,1.069,0,0,0,.545-.475c.048-.069.04-.222.2-.163a.928.928,0,0,0,.012.668c.239.754.477,1.511.676,2.277a2.731,2.731,0,0,1,.106,1.6,1.68,1.68,0,0,0,.079,1.146c.858-.873.193-3.854-.679-5.911-.068.076-.136.149-.205.225m12.772-13.9a3.993,3.993,0,0,0,.658.646c.413.271.685.232.96-.17a2.165,2.165,0,0,0,.378-1.334c-.02-.485-.181-.628-.7-.647.018.364.052.729.049,1.093,0,.175-.016.4-.238.453s-.342-.135-.453-.3a5.3,5.3,0,0,1-.442-.986c-.54.618-.54.618-.211,1.25-.069.144-.2-.08-.255.033-.178.35-.394.118-.608.036a1.635,1.635,0,0,0-.247.819,1.41,1.41,0,0,0,.776.1.478.478,0,0,0,.392-.751c-.034-.073-.187-.13-.064-.248m-7.206-.97c-.187.1-.372.214-.565.308a.46.46,0,0,1-.511-.079.4.4,0,0,1-.1-.466,1.794,1.794,0,0,1,.281-.582.515.515,0,0,0,.078-.549c.064-.024.081-.063.015-.175-.027.053-.045.091-.065.128-.3.25-.6.5-.9.747a1.535,1.535,0,0,1-.731.366.53.53,0,0,1-.619-.7,2.535,2.535,0,0,1,.3-.619c.049-.088.159-.164.107-.3a2.837,2.837,0,0,0-.764.848.672.672,0,0,0,.584,1.074,1.708,1.708,0,0,0,1.067-.333,1.8,1.8,0,0,1,.488-.274c-.071.137-.132.229-.171.329a.759.759,0,0,0,.019.8.638.638,0,0,0,.734.149,1.3,1.3,0,0,0,.826-.632c.008-.025.032-.069.025-.074-.039-.031-.072-.014-.094.029m22.837,37.293a2.043,2.043,0,0,0,.927,0,13.884,13.884,0,0,0-1.374-1.266c-.087.236-.316.3-.407.487-.245-.078-.211-.41-.463-.483a3.483,3.483,0,0,0,1.994,2.166.961.961,0,0,0-.338-.526c-.118-.122-.306-.189-.334-.389Zm5.188-38.655a1.136,1.136,0,0,1-.349-.788,3.159,3.159,0,0,1,.19-1.229c.046-.174.088-.329-.063-.466a1.5,1.5,0,0,0-.78,1.575,1.577,1.577,0,0,0,1.351,1.566c-.01-.186-.169-.295-.22-.458.138-.058.157.087.219.142a1.806,1.806,0,0,0,.737.46c.01-.025.019-.038.016-.046a.518.518,0,0,0-.064-.118,2.385,2.385,0,0,1-.621-2.259c.055-.242-.125-.313-.294-.388a1.532,1.532,0,0,0-.294,1.448c.046.192.206.348.172.561m-21.723-1.735a2.658,2.658,0,0,0,.334-1.136c.013-.5-.008-.532-.543-.54,0,.321.016.645-.006.964-.011.173-.087.353-.3.37-.188.017-.243-.153-.3-.288-.081-.2-.142-.4-.223-.64-.18.2-.446.293-.4.592a.891.891,0,0,0,1.368.74c-.171.5.112.8.466,1.06a.629.629,0,0,0,.933-.153,1.7,1.7,0,0,0,.289-.8c.068-.549-.18-.821-.755-.819a6.578,6.578,0,0,1,.2.938c.009.16.033.343-.165.405s-.313-.064-.4-.2a5.825,5.825,0,0,1-.286-.541c-.111-.037-.125.138-.223.047m-2.008,2.055a.652.652,0,0,0,.814-.162,1.758,1.758,0,0,0,.53-.946c.109-.473.106-.489-.375-.6a4.636,4.636,0,0,1-.227.781.428.428,0,0,1-.455.239c-.218-.03-.2-.217-.231-.37-.032-.187.041-.385-.041-.578a1.3,1.3,0,0,0-.009,1.646.626.626,0,0,0-.487.163c-.194.2-.424.29-.6-.027a.514.514,0,0,0-.3.3c-.146.306-.03.555.274.6a1.627,1.627,0,0,0,1.3-.763c-.018-.14-.246-.1-.2-.281m-6.282,18.072c-.023-.017-.08-.017-.053-.063a3.823,3.823,0,0,0,.183-2.657.736.736,0,0,0-.176-.428c-.289.181-.2.425-.147.656a3.344,3.344,0,0,1-.059,2.164.446.446,0,0,0-.011.383c.11.015.152-.177.271-.06-.026.244-.427.324-.28.643.434-.077.716-.37.875-.937a5.081,5.081,0,0,0,.044-2.226,4.291,4.291,0,0,0-.344-1.257,1.035,1.035,0,0,0-.058.963,5.15,5.15,0,0,1,.166,1.88,1.287,1.287,0,0,1-.411.938m-2.575-20.279a3.289,3.289,0,0,0-1.238,1.477.633.633,0,0,0,.7.941,3.052,3.052,0,0,0,1.791-.915c-.432.147-.846.338-1.276.481-.273.094-.611.233-.824-.074s.042-.559.211-.8a3.824,3.824,0,0,0,.674-1.07c.009-.024.031-.068.026-.071-.036-.025-.054,0-.064.033m23.874,36.178c.27.093.242.467.508.592a.646.646,0,0,0-.1-.595,4.563,4.563,0,0,0-.724-.868c-.106-.107-.291-.16-.292-.356a1.25,1.25,0,1,0,.035-.308.251.251,0,0,0-.024.315.55.55,0,0,1-.444-.366,2.426,2.426,0,0,0,1.24-1.266,2.5,2.5,0,0,0-1.232,1.274c-.2.021-.275-.16-.408-.244a1.655,1.655,0,0,0-.818-.41c-.284-.01-.486.089-.513.416.231.063.389-.19.606-.1a2.4,2.4,0,0,1,.56.337,10.647,10.647,0,0,1,1.545,1.52c-.457.078-.479.106-.425.554-.216,0-.274-.2-.428-.318.108-.05.247.011.236-.164a.766.766,0,0,0-.563-.644c-.046.17.168.312.047.5a3.7,3.7,0,0,0-1.413-1.021,6.778,6.778,0,0,0,2.079,2.066,1.08,1.08,0,0,0,.385.143c.2.035.237-.057.2-.223.158-.03.2.118.282.2.679.651,1.349,1.314,2.029,1.968.122.117.232.279.467.229-.952-.937-1.826-1.951-2.861-2.8-.127.208.14.265.091.42a.483.483,0,0,1-.561-.355c.263-.062.369-.283.495-.484m-8.508-5.734a.552.552,0,0,1-.039-.043c0,.013-.009.025-.005.034.013.031.032.031.049,0-.009.029-.033.063-.025.086a12.944,12.944,0,0,0,1.249,3.109c.064.11.123.25.306.267a.99.99,0,0,0-.067-.466,13.117,13.117,0,0,0-1.192-2.656c-.073-.121-.119-.274-.276-.332m1.247,10.795c-.17-.115-.186-.317-.269-.48a3.643,3.643,0,0,0-.6-.994c-.2.388.138.694.113,1.071a1.141,1.141,0,0,0-1.052-.325,1.716,1.716,0,0,0,1.168.448,5.109,5.109,0,0,0,.749,1.359c.119-.167.039-.3.03-.433-.015-.227-.179-.421-.148-.658.3.166.554.454.976.313a1.516,1.516,0,0,0-.851-.443c-.142-.042-.1.076-.113.142m-.691-4.427c-.089-.031-.046-.085-.019-.131.114-.192.125-.387-.075-.515s-.33.026-.5.179c.33.071.328.279.264.491.142.09.212-.181.34-.029-.149.24-.411.219-.637.282-.089-.185.228-.268.1-.507a12.489,12.489,0,0,0-2.769,2.611c-.011.025-.036.069-.029.075.039.035.072.017.093-.027a2.857,2.857,0,0,0,.324-.187,16.369,16.369,0,0,0,2.027-1.8c.071-.075.1-.23.267-.179-.034.146.034.208.176.222a.628.628,0,0,0,.447-.147,16.123,16.123,0,0,0,2.153-1.976c.018-.02.018-.057.029-.1a.758.758,0,0,0-.6.24c-.373.308-.671.691-1.013,1.029-.175.173-.317.391-.574.462m4.57,4.138a.624.624,0,0,0-.041-.048l-.011.09a.609.609,0,0,0,.332.376,5.652,5.652,0,0,0,2.768.706l-3.048-1.124m-9.064-21.5c.689-.429,1.38-.762,2.086-.031a.528.528,0,0,0-.34-.808,1.54,1.54,0,0,0-1.78.8c-.006.026-.021.073-.014.077.04.022.043-.015.048-.041m3.2,12.7c-.028-.069-.086-.089-.128-.036s.031.066.062.095a10.235,10.235,0,0,0,1.552,1.8.533.533,0,0,0,.573.2,10.853,10.853,0,0,0-2.059-2.059m9.349,2.905.067.111c-.013.209.143.122.208.094a.665.665,0,0,0,.459-.694c-.153,0-.254.168-.436.058.25-.256.336-.647.74-.763.169-.051.11-.179.076-.3a5.04,5.04,0,0,0-1.409,1.639c.138.03.194-.1.3-.146m-.646-1.781c-.237.3-.311.354-.5.354-.022-.084.119-.154.025-.244-.409.03-.483.1-.444.426.1.105.2-.1.3.02.008.133-.181.214-.1.369a.651.651,0,0,0,.065-.033c.694-.57,1.2-1.331,1.912-1.883a.219.219,0,0,0,.035-.29c-.044.007-.116,0-.127.023-.118.254-.375.384-.537.6a6.811,6.811,0,0,1-.564.6c-.015-.116,0-.247-.192-.223-.153.02-.3.031-.286.216.137.146.292-.044.417.069m-8.628.047c-.017-.029-.047-.058-.071-.025s.009.048.042.053a2.824,2.824,0,0,0,1.516,1.307,4.38,4.38,0,0,0-1.487-1.334m5.758,6.558.005-.011h-.012a2.82,2.82,0,0,0,1.938.993c-.6-.371-1.221-.7-1.846-1.018-.018-.009-.056.021-.085.034m-2.285.053c-.053-.149-.139-.036-.182-.008-.251.161-.5.323-.735.5a.938.938,0,0,0-.437.558,3.5,3.5,0,0,0,1.34-1.059c.015-.025.03-.053-.009-.068-.007,0-.019.007-.028.012l.051.062m-3.968-16.97c-.095-.1.006-.383-.254-.324a.508.508,0,0,0-.409.492c.293.116.443-.159.673-.172-.059.241-.145.486.076.7.352-.245.381-.439.129-.769-.1-.043-.117.111-.215.074m.27-1.651c-.154-.125.116-.228,0-.365a.441.441,0,0,0-.557.2c.165.192.383.105.561.166-.02.1-.045.2-.058.3-.017.135.016.274.154.31s.191-.1.235-.206a.442.442,0,0,0-.107-.537l-.231.135m-.205,8.082c-.018-.059-.076-.072-.1-.042-.047.051.034.06.052.092l.721.9c-.04-.628-.146-.771-.669-.953m9.112,11.082c.005.032.018.055.052.034l-.026-.06a1.034,1.034,0,0,0-.533-.734c-.052.26.175.405.172.62-.163.056-.232-.1-.328-.163-.449-.32-.888-.654-1.331-.984-.014.19.119.249.2.348.06.073.235.082.15.243-.435-.121-.751-.513-1.3-.559a3.841,3.841,0,0,0,1.352.829c.154.064.085-.106.146-.143a.372.372,0,0,1,.119.043c.494.427,1,.84,1.47,1.292.14.134.394.161.423.407a3.67,3.67,0,0,0-1.516-.554,4.445,4.445,0,0,0,1.87.993c-.065-.206-.238-.249-.3-.385.148-.09.2.068.269.125.687.521,1.379,1.037,2.1,1.511a1.514,1.514,0,0,0,.854.318.716.716,0,0,0-.342-.393c-1.241-.914-2.487-1.82-3.727-2.733-.058-.043-.16-.089-.115-.2.156-.05.19.182.341.146m-20.892-40.344-.07.068a2.4,2.4,0,0,1-1.372.567c-.418.032-.6-.178-.529-.588a.807.807,0,0,0,.033-.43.466.466,0,0,0-.229.309c-.123.314-.245.646.015.94a.873.873,0,0,0,.926.191,1.963,1.963,0,0,0,1.219-.939l.049-.077c.034-.029.065-.059.016-.1l-.058.057m11.91,44.347h-.207a3.428,3.428,0,0,1-1.566-1.525c-.326-.676-.3-.81.26-1.3a6.7,6.7,0,0,0,.827-.727,2.063,2.063,0,0,0-2.108.565.526.526,0,0,1-.131.112c-.145.09-.285.319-.469.137s-.573-.3-.349-.724c-.124,0-.252.04-.326-.007-.4-.251-.4.048-.445.3-.012.078-.028.157-.039.237a.7.7,0,0,1-.654.726,4.49,4.49,0,0,1-2.018-.118,9.412,9.412,0,0,1-5.024-3.514,3.023,3.023,0,0,1-.218-.358,21.991,21.991,0,0,0,2.66,1.191,2.4,2.4,0,0,1-.413-1.6,12.939,12.939,0,0,0,3.409,2.221c.059-.353.111-.646.158-.939.079-.5.177-.6.687-.626.207-.014.415,0,.623,0h.664a3.971,3.971,0,0,1-1.484-2.206,4.265,4.265,0,0,1-1.714,2.5,5.208,5.208,0,0,1-1.038-2.825,4.961,4.961,0,0,1-1.549,1.833c-.743-1.043-.533-2.286-.786-3.5-.471.6-.728,1.318-1.518,1.469a4.872,4.872,0,0,1-.346-2.98,1.463,1.463,0,0,1-1.067.742c-.082-.172-.159-.335-.258-.546a4.11,4.11,0,0,1-.652,1.319,2.534,2.534,0,0,1-1.218.826,36.93,36.93,0,0,0-1.09-4.076c-.88-2.88-2.018-5.668-3.027-8.5a33.774,33.774,0,0,1-1.815-6.782,3.655,3.655,0,0,0-.167-1.062v-2.56a1.491,1.491,0,0,0,.121-.69,19.511,19.511,0,0,1,4.441-10.45,12.334,12.334,0,0,1,5.074-3.766,5.648,5.648,0,0,1,4.115-.1,2.232,2.232,0,0,1,1.547,2.008,5.263,5.263,0,0,1-.441,2.455c-.16.4-.359.793-.563,1.237a2.8,2.8,0,0,0,1.671-1.485,6.57,6.57,0,0,0,.645-3.653,2.4,2.4,0,0,0-2.607-2.359c-.108.16-.052.385-.2.532a1.714,1.714,0,0,1-1.1-1.714,1.444,1.444,0,0,1,1.159-1.442,5.628,5.628,0,0,1,.567-.152,1.763,1.763,0,0,0,.884-.431,1.7,1.7,0,0,1,.8-.394,4.409,4.409,0,0,1,1.985.038,21.107,21.107,0,0,1,4.726,1.874.238.238,0,0,1,.164.23,1.507,1.507,0,0,0,.387.865q.491.667.975,1.339c.058.082.177.173.123.269-.2.342.011.6.157.865.336.6.7,1.192,1.047,1.786.115.2.219.382.006.586-.121.116-.016.233.037.343.329.685.656,1.367.991,2.047.045.093.046.228.188.265a2.73,2.73,0,0,0,.15-.642c.148-.85.188-1.717.4-2.556a1.8,1.8,0,0,1,1.65-1.484,1.522,1.522,0,0,0,1.266-.818,7.274,7.274,0,0,0,.393-.688,2.685,2.685,0,0,1,.611-.869,13.14,13.14,0,0,1,2.737-2.03,6.378,6.378,0,0,0,.849-.407c.033-.145-.089-.258-.027-.365.212-.114.512.139.636-.212a.644.644,0,0,1,.672-.439c.079,0,.194.013.231-.032a.988.988,0,0,1,.878-.283c.092,0,.212.018.279-.092h.415c.092.078.232.138.268.237.148.4.473.37.793.372.2,0,.392,0,.587,0a1.389,1.389,0,0,1,1.122.521,3.131,3.131,0,0,0,1.274.913,2.123,2.123,0,0,1,.882.526,6.245,6.245,0,0,0,1.282,1.094,3.353,3.353,0,0,1,.936.907,1.038,1.038,0,0,1,.088,1.045,4,4,0,0,0-.38.766,3.124,3.124,0,0,1-.84,1.439c-.611-.429-1.27-.046-1.873-.14a.375.375,0,0,1,.05-.376,1.466,1.466,0,0,1,.93.04c.267.086.536.174.8.262l.033-.128c-.553-.092-1.039-.457-1.644-.329a.59.59,0,0,0-.167.105c-.072-.029-.131.14-.208.011a.584.584,0,0,1,.541-.293,1.744,1.744,0,0,1,.732.168c.679.248.969.125,1.218-.553a3.013,3.013,0,0,1,.528-1.071.594.594,0,0,0,.124-.315.3.3,0,0,0-.285-.359.271.271,0,0,0-.349.278.661.661,0,0,1-.05.348.615.615,0,0,1-.374-.1c.081-.12.212.012.293-.1a.414.414,0,0,0-.3-.435,2.762,2.762,0,0,0-1.49-.321.708.708,0,0,1-.856-.521c-.049-.239-.1-.439-.38-.534a5.593,5.593,0,0,1,1.228-.035c.286.032.247.384.4.563.013.017.039.022.059.032.012.072.072.181-.071.166-.362-.041-.829.111-.929-.464,0-.014-.056-.019-.086-.028a.537.537,0,0,0,.658.657.827.827,0,0,1,.332-.054c.094.02.2.085.268-.049.081-.149-.046-.2-.125-.271-.149-.643-.227-.831-1.121-.791a3.975,3.975,0,0,1-.895,0,.772.772,0,0,1-.692-.517,2.492,2.492,0,0,0,1.473-.242.679.679,0,0,0-.5-.418,1.056,1.056,0,0,1-.634-.494,1.231,1.231,0,0,0-.935-.63c-.522-.1-1.054-.06-1.574-.13-.017-.093-.034-.171-.049-.249-.03-.152-.115-.262-.274-.257a.346.346,0,0,0-.327.265c-.077.229.126.439.449.47.292.028.585.052.878.079-.483-.094-.985.014-1.475-.1-.009-.078-.017-.146-.022-.214-.009-.127,0-.269-.152-.314a.385.385,0,0,0-.41.113.414.414,0,0,0-.136.405.34.34,0,0,0,.343.238c.481.043.962.079,1.443.124a.679.679,0,0,1,.493.216,13.317,13.317,0,0,0-1.747-.127c-.649-.056-.649-.05-.813-.631a.423.423,0,0,0-.482.176c-.169.27.111.428.181.651l-.349-.015c.031.065.038.128.069.143.682.344.844,1.213,1.569,1.53.224.1.372.352.629.087l.054.06a.468.468,0,0,0,.392.734c.258-.648.415-.72.774-.323-.281-.042-.549.063-.528.315.037.464.491.306.8.39-.2.138-.446.082-.613.264a10.978,10.978,0,0,1,1.162,2.473c.042,0,.2-.02.21.091.035.3.248.491.368.736a.815.815,0,0,0,.853.553,2.044,2.044,0,0,1,1.462.218.37.37,0,0,0,.492-.106.627.627,0,0,0,.139-.613c-.061-.206-.27-.211-.435-.205-.25.01-.5.07-.749.1-.183.021-.394.057-.489-.151a.467.467,0,0,1,.1-.618c-.041.551.076.735.484.6a3.326,3.326,0,0,1,1.581.05c-.07.266-.122.525-.209.774-.176.5-.451.629-.965.457a4.108,4.108,0,0,0-.894-.254.582.582,0,0,0-.71.4,1.59,1.59,0,0,0,.724,1.619,5.957,5.957,0,0,1,2.408,1.735,10.528,10.528,0,0,0,1.227,1.224,1.357,1.357,0,0,0,.118-.152.8.8,0,0,1,.961-.339.671.671,0,0,1,.6.656c.036.37.29.451.644.488-.105-1.612.09-3.208.138-4.825a.847.847,0,0,1-.793-.193.688.688,0,0,1-.191-.729.883.883,0,0,1,.715-.534,1.546,1.546,0,0,1,1.786,1.095c.068.225.056.539.332.6a1.321,1.321,0,0,1,.955,1.029c.045.138.1.256.268.272.266.03.31.2.311.437,0,.2-.1.438.164.586a.934.934,0,0,1,.441.777,1.256,1.256,0,0,0,.205.683,1.772,1.772,0,0,1,.355,1.3,1.218,1.218,0,0,1-1.2,1.115c-.616.014-.864-.284-.733-.883-.5-.054-.678.1-.7.591a4.65,4.65,0,0,0,.246,1.525c.749,2.468,2.168,4.63,3.166,7,.372-.228.734-.494,1.144-.14a1.468,1.468,0,0,1,.363,1.614c.3.137.291.4.244.651-.059.314-.154.623-.234.936,0,.029,0,.059-.006.088l.08-.022c.083-.029.144-.117.246-.1v.692c-.176.267-.167.606-.354.849.055.1.2.068.192.167a2.074,2.074,0,0,1-.276.966c.261.238.29.351.126.637a3.35,3.35,0,0,1-.366.5,10.542,10.542,0,0,1-.95.854c-.425.388-.431.659-.051,1.083.192.216.384.429.566.651.1.124.219.272.131.436s-.265.113-.409.1a3.251,3.251,0,0,1-.712-.125,1.107,1.107,0,0,0-1.179.273,4.74,4.74,0,0,1-4.914.848,10.635,10.635,0,0,1-2.347-1.432c-.069-.048-.117-.153-.227-.1a2.882,2.882,0,0,0,1.079,2.888.885.885,0,0,0,.833.2,3.178,3.178,0,0,1,.612-.093.633.633,0,0,1,.721.451c.053.139.087.3.242.389.394-.564.637-.665,1.037-.442.381.214.418.655.1,1.4.265.024.21.209.182.377a1.8,1.8,0,0,1-.326.752c-.048.063-.155.123-.056.232.124.136.053.276,0,.418a2.338,2.338,0,0,1-.725.952.646.646,0,0,0-.239.64,6.613,6.613,0,0,1,.046,1.242,1.27,1.27,0,0,1-.884,1.269.5.5,0,0,0-.37.381,2.11,2.11,0,0,1-1.859,1.657.759.759,0,0,0-.388.13,1.742,1.742,0,0,1-.93.331.608.608,0,0,0-.548.364c-.162.406-.343.806-.546,1.219a6.061,6.061,0,0,0,2.51-1.095c.088-.064.168-.189.291-.077.139.131.015.242-.066.322-.239.233-.485.459-.741.671a13.617,13.617,0,0,1-3.825,2.491,3.692,3.692,0,0,1-2.3.194.711.711,0,0,1-.579-.681c-.024-.249-.061-.5-.093-.76h-1.3a3.217,3.217,0,0,1,.084.34.5.5,0,0,1-.2.547.457.457,0,0,1-.571-.079l-.586-.485a1,1,0,0,0-.6-.317c-.651-.011-1.3,0-2.038,0,.33.246.6.455.872.65.8.567,1.6,1.13,2.393,1.7.1.074.25.136.143.324a.891.891,0,0,1-1.267.328c-.517-.345-1.02-.709-1.526-1.068a.9.9,0,0,0-.442-.168,19.791,19.791,0,0,1-2.414-.409c-.548-.138-1.089-.3-1.649-.461,0,.293.017.558-.005.821a.56.56,0,0,0,.247.527c.319.256.326.375.08.7a1.391,1.391,0,0,1-.744.471c-.113.035-.259-.042-.342.095h-.208c-.066-.126-.2-.081-.3-.113a1.7,1.7,0,0,1-.785-.534c-.17-.205-.185-.368.027-.554.143-.125.319-.249.322-.468.006-.595,0-1.189,0-1.816a1.207,1.207,0,0,0-.653.491c-.16.177-.283.412-.537.466a.882.882,0,0,0-.555.425.6.6,0,0,1-.243.237,4.186,4.186,0,0,0-1.031.74,10.7,10.7,0,0,1-1.431,1.126" fill="#fff"/>
    <path id="Path_6" data-name="Path 6" d="M977.3,9050.283c0-.137.041-.171.11-.187.059.1-.022.124-.11.187" fill="#fff"/>
    <path id="Path_7" data-name="Path 7" d="M945.9,9046.334a4.469,4.469,0,0,0,.838-2.132.881.881,0,0,1,.6-.788,1.38,1.38,0,0,0,.984-1.522.557.557,0,0,1,.278-.543,9.147,9.147,0,0,0,.728-.583,1.337,1.337,0,0,0,.527-1.493.413.413,0,0,1,0-.306,1.341,1.341,0,0,1-.006,1.485,3.371,3.371,0,0,1-.8.755,1.13,1.13,0,0,0-.539.93,1.544,1.544,0,0,1-1,1.38,1.014,1.014,0,0,0-.636.923,3.46,3.46,0,0,1-.684,1.744c-.084.112-.085.111-.286.15" fill="#fff"/>
    <path id="Path_8" data-name="Path 8" d="M967.41,9051.424a1.434,1.434,0,0,1-1.694.071.594.594,0,0,0-.562.053,1.71,1.71,0,0,1-1.62.012.354.354,0,0,0-.328-.023,2.055,2.055,0,0,1-1.856-.034c-.01,0-.036.021-.053.031-.021.229.117.326.312.387a1.6,1.6,0,0,0,1.045.02,1.458,1.458,0,0,1,1.2.021,1.25,1.25,0,0,0,1.072-.021,1.156,1.156,0,0,1,.993-.008,1.633,1.633,0,0,0,1.394-.12c.158-.077.193-.177.1-.388m.922-1.487a1.255,1.255,0,0,0-.446.132,1.151,1.151,0,0,1-1,0,.831.831,0,0,0-.837-.035,1.671,1.671,0,0,1-1.435-.039.693.693,0,0,0-.623,0,1.43,1.43,0,0,1-1.264.056,1.026,1.026,0,0,0-.981-.013,1.1,1.1,0,0,1-1.147-.048.243.243,0,0,0-.212-.057.27.27,0,0,0,.142.357,1.318,1.318,0,0,0,1.222.122,1.151,1.151,0,0,1,1.141-.027,1.258,1.258,0,0,0,1.223-.051.628.628,0,0,1,.711-.019,1.327,1.327,0,0,0,1.378.012.547.547,0,0,1,.608.016,1.456,1.456,0,0,0,1.412-.088c.128-.053.142-.165.11-.313m-8.944-.823a3.244,3.244,0,0,0,1.645-.307.224.224,0,0,1,.255.044,1.436,1.436,0,0,0,1.595.061.58.58,0,0,1,.618-.019,1.282,1.282,0,0,0,1.434.013.573.573,0,0,1,.664.021,1.274,1.274,0,0,0,1.377-.01.746.746,0,0,1,.688-.053,2.924,2.924,0,0,0,.839.183c.224.016.285.115.286.33a4.853,4.853,0,0,1-2.359,4.373,7.337,7.337,0,0,1-1.994.92.67.67,0,0,1-.439.008,6.839,6.839,0,0,1-4.42-4.051,2.846,2.846,0,0,1-.189-1.513" fill="#fff"/>
    <path id="Path_9" data-name="Path 9" d="M960.716,9048.538c.12-.194.356-.2.468-.365-.26-.551-.486-.626-1-.346a2.738,2.738,0,0,1-.8.44v-4.575H968.8v.751c0,1,.007,2-.005,3.006-.005.453-.082.541-.531.491a5.269,5.269,0,0,1-2.945-1.121,2.243,2.243,0,0,0-1.316-.444c-.215-.019-.341.161-.48.3a11.473,11.473,0,0,1-2.5,1.812c-.086.047-.173.127-.3.054" fill="#fff"/>
    <path id="Path_10" data-name="Path 10" d="M964.787,9047.094a1.169,1.169,0,0,1-.71.342c-.11-.089.031-.17-.014-.286-.345.048-.554.382-.889.45a1.57,1.57,0,0,1,.8-.971.923.923,0,0,0,.808.465" fill="#fff"/>
    <path id="Path_11" data-name="Path 11" d="M976.264,9027.668a1.13,1.13,0,0,0,.472-1.22,1.208,1.208,0,0,0-.966-.84c-.732-.2-1.5-.226-2.231-.407a4.812,4.812,0,0,1,2.906.629,1.194,1.194,0,0,1,.33,1.485c-.1.184-.214.385-.511.353" fill="#fff"/>
    <path id="Path_12" data-name="Path 12" d="M974.569,9026.661a1,1,0,0,1,.727-.406.636.636,0,0,1,.688.918c-.018-.009-.05-.018-.05-.025.015-.259.019-.522-.241-.666a.794.794,0,0,0-.816.068c-.089.05-.17.113-.255.17l-.053-.059" fill="#fff"/>
    <path id="Path_13" data-name="Path 13" d="M979.155,9029.324a3.275,3.275,0,0,0,.713.644c-.474-.053-.665-.226-.713-.644" fill="#fff"/>
    <path id="Path_14" data-name="Path 14" d="M979.487,9028.647c.411-.244.52-.247.991-.022a1.757,1.757,0,0,0-.991.022" fill="#fff"/>
    <path id="Path_15" data-name="Path 15" d="M981.187,9066.674l-.046.009c0-.014.006-.028.009-.043l.03.043.007-.009" fill="#fff"/>
    <path id="Path_16" data-name="Path 16" d="M953.254,9025.455c-.011-.248-.139-.26-.269-.254a.185.185,0,0,0-.2.221.243.243,0,0,0,.278.2c.135-.014.2-.1.191-.169m.724-.062a1.8,1.8,0,0,1-1.88.031c.019-.136.126-.121.21-.109a.493.493,0,0,0,.434-.152c.2-.193.419-.224.587.007s.443.041.649.224" fill="#fff"/>
    <path id="Path_17" data-name="Path 17" d="M952.056,9025.717c.24-.1.393-.129.519.01.26.285.531.208.806.04a.492.492,0,0,1,.589-.061c-.371.061-.589.36-.929.373s-.563-.322-.985-.362" fill="#fff"/>
    <path id="Path_18" data-name="Path 18" d="M989.135,9055.623c-.074-.025-.135-.057-.071-.149.085.021.171.04.071.149" fill="#fff"/>
    <path id="Path_19" data-name="Path 19" d="M989.069,9055.482c-.1.05-.08-.021-.078-.076.1-.056.081.021.078.076" fill="#fff"/>
    <path id="Path_20" data-name="Path 20" d="M983.665,9049.944c.166.021.174.166.218.281-.169-.02-.175-.166-.218-.281" fill="#fff"/>
    <path id="Path_21" data-name="Path 21" d="M984.363,9054.794c-.054-.036-.141-.056-.072-.152.067.031.142.059.072.152" fill="#fff"/>
    <path id="Path_22" data-name="Path 22" d="M982.776,9049.4c-.095.047-.075-.026-.078-.076.1-.049.079.022.078.076" fill="#fff"/>
    <path id="Path_23" data-name="Path 23" d="M984.435,9054.862c-.056,0-.072-.032-.079-.078.028,0,.046-.049.087-.009s0,.059-.008.087" fill="#fff"/>
    <path id="Path_24" data-name="Path 24" d="M984.3,9054.652c-.029,0-.048.047-.088.008s.005-.06.009-.087l.079.079" fill="#fff"/>
    <path id="Path_25" data-name="Path 25" d="M950.48,9050.493a.5.5,0,0,1,.339.328,1.023,1.023,0,0,1-.384-.279l.045-.049" fill="#fff"/>
    <path id="Path_26" data-name="Path 26" d="M952.433,9047.155c-.038-.017-.075-.034-.137-.061.122-.062.164-.052.186.014-.015.017-.032.031-.049.047" fill="#fff"/>
    <path id="Path_27" data-name="Path 27" d="M950.434,9050.542l-.107-.077c.082-.083.118-.03.152.027-.014.018-.029.033-.045.05" fill="#fff"/>
    <path id="Path_28" data-name="Path 28" d="M950.951,9050.161l-.06-.05c.041-.046.066-.016.09.02-.01.009-.02.02-.03.03" fill="#fff"/>
    <path id="Path_29" data-name="Path 29" d="M979.725,9064.683c0-.027-.048-.046-.008-.086s.058,0,.086.009c0,.055-.023.08-.078.077" fill="#fff"/>
    <path id="Path_30" data-name="Path 30" d="M974.04,9028.749c-.078.071-.12.189-.282.2a.414.414,0,0,1,.212-.25l.07.053" fill="#fff"/>
    <path id="Path_31" data-name="Path 31" d="M974.649,9029.078c.045-.131.113-.158.209-.148-.009.14-.1.122-.209.148" fill="#fff"/>
    <path id="Path_32" data-name="Path 32" d="M975.926,9030.921c.048.137-.013.2-.145.217a.242.242,0,0,1,.145-.217" fill="#fff"/>
    <path id="Path_33" data-name="Path 33" d="M974.829,9029.719c.045-.062.088-.129.184-.094.006.089-.053.114-.114.138l-.07-.044" fill="#fff"/>
    <path id="Path_34" data-name="Path 34" d="M974.43,9029.154a.249.249,0,0,1,.192-.11c.011.124-.073.138-.139.165l-.053-.055" fill="#fff"/>
    <path id="Path_35" data-name="Path 35" d="M974.188,9028.567c.028-.068.075-.07.149-.028-.041.029-.075.05-.108.073a.45.45,0,0,0-.041-.045" fill="#fff"/>
    <path id="Path_36" data-name="Path 36" d="M974.483,9029.209a.354.354,0,0,1-.062.074.306.306,0,0,1-.085.021c-.027-.1.049-.115.1-.15l.052.055" fill="#fff"/>
    <path id="Path_37" data-name="Path 37" d="M975.667,9030.12a.255.255,0,0,1,.088-.036c.019,0,.062.026.026.059a.116.116,0,0,1-.08.021c-.01,0-.02-.026-.034-.043" fill="#fff"/>
    <path id="Path_38" data-name="Path 38" d="M974.052,9028.639c.021-.067.077-.074.136-.071a.464.464,0,0,1,.041.046c-.046.026-.091.056-.137.084-.014-.02-.027-.038-.04-.059" fill="#fff"/>
    <path id="Path_39" data-name="Path 39" d="M973.676,9029.027c.024-.034.047-.095.1-.047s-.015.069-.043.1l-.053-.05" fill="#fff"/>
    <path id="Path_40" data-name="Path 40" d="M974.092,9028.7l-.052.052c-.023-.017-.046-.036-.07-.053l.082-.058.04.059" fill="#fff"/>
    <path id="Path_41" data-name="Path 41" d="M973.63,9029.117l.046-.091c.017.018.036.033.053.051l-.049.087-.05-.047" fill="#fff"/>
    <path id="Path_42" data-name="Path 42" d="M974.9,9029.763c-.022.032-.03.1-.089.058s-.02-.073.019-.1l.07.044" fill="#fff"/>
    <path id="Path_43" data-name="Path 43" d="M976,9030.853c0,.028.048.048.008.087s-.058,0-.086-.01c0-.048.02-.083.078-.077" fill="#fff"/>
    <path id="Path_44" data-name="Path 44" d="M974.235,9029.342c.028-.032.061-.062.092-.011s-.017.066-.052.085l-.04-.074" fill="#fff"/>
    <path id="Path_45" data-name="Path 45" d="M968.554,9055.551c-.036.454-.248.694-.522.7s-.519-.248-.609-.668c.184.1.184.1.331.319.225-.219.689.256.8-.352" fill="#fff"/>
    <path id="Path_46" data-name="Path 46" d="M968.259,9057.162c.162.089.274.235.48.2-.137.175-.137.175-.462-.012-.182.15-.132.4-.261.6l-.273-.308c.34.013.319-.319.516-.479" fill="#fff"/>
    <path id="Path_47" data-name="Path 47" d="M967.974,9055.546c-.171-.13-.143-.307-.29-.368-.074-.029-.055-.109-.014-.177a.147.147,0,0,1,.139-.078.134.134,0,0,1,.141.123c.015.147.015.294.024.5" fill="#fff"/>
    <path id="Path_48" data-name="Path 48" d="M968.213,9055.546a.87.87,0,0,1-.037-.458c0-.073.026-.137.1-.153a.144.144,0,0,1,.169.079c.031.065.053.14-.016.184-.12.075-.153.207-.221.349" fill="#fff"/>
    <path id="Path_49" data-name="Path 49" d="M967.665,9057.451c.026.036.047.074,0,.106l-.055-.058.054-.049" fill="#fff"/>
    <path id="Path_50" data-name="Path 50" d="M968.837,9057.265l-.02-.012.022-.034c.007.008.019.017.019.024s-.013.015-.021.021" fill="#fff"/>
    <path id="Path_51" data-name="Path 51" d="M968.957,9057.087c-.018.03-.022.092-.076.054s0-.07.017-.1l.059.051" fill="#fff"/>
    <path id="Path_52" data-name="Path 52" d="M945.75,9053.592a2.616,2.616,0,0,0,.325-1.851c-.008-.156-.106-.33.078-.475a3.235,3.235,0,0,1-.324,2.385l-.079-.06" fill="#fff"/>
    <path id="Path_53" data-name="Path 53" d="M982.5,9053.817a.271.271,0,0,1,.214.131l-.045.05c-.065-.047-.13-.094-.2-.14a.426.426,0,0,1,.027-.041" fill="#fff"/>
    <path id="Path_54" data-name="Path 54" d="M982.388,9053.718c.043.025.1.032.109.1a.332.332,0,0,0-.027.041l-.12-.1a.457.457,0,0,0,.038-.038" fill="#fff"/>
    <path id="Path_55" data-name="Path 55" d="M982.351,9053.756c-.032-.013-.1-.012-.056-.066s.067,0,.094.028l-.038.038" fill="#fff"/>
    <path id="Path_56" data-name="Path 56" d="M966.523,9071.872c-.093.066-.124,0-.148-.072.11-.1.129-.013.148.072" fill="#fff"/>
    <path id="Path_57" data-name="Path 57" d="M966.384,9071.806c-.055,0-.1,0-.076-.077.027,0,.046-.047.084-.007s0,.057-.008.084" fill="#fff"/>
    <path id="Path_58" data-name="Path 58" d="M968.6,9073.675c-.047-.006-.082-.023-.078-.079a.219.219,0,0,1,.084,0c.051.024,0,.051-.006.077" fill="#fff"/>
    <path id="Path_59" data-name="Path 59" d="M971.2,9071.791l-.044-.025c.007-.007.016-.021.023-.021a.237.237,0,0,1,.046.021l-.025.025" fill="#fff"/>
    <path id="Path_60" data-name="Path 60" d="M971.413,9072.029c-.006-.027-.014-.056-.02-.082.017.009.041.014.049.027.023.039-.007.056-.038.065l.009-.011" fill="#fff"/>
    <path id="Path_61" data-name="Path 61" d="M971.5,9072.075c-.029-.018-.058-.032-.087-.047l-.01.012c.023-.009.047-.021.07-.031.006.024.014.048.02.073Z" fill="#fff"/>
    <path id="Path_62" data-name="Path 62" d="M971.544,9072.168l-.043-.094-.007.008c.027.01.062.012.078.031.04.048-.026.042-.037.063l.009-.008" fill="#fff"/>
    <path id="Path_63" data-name="Path 63" d="M971.6,9072.26c.019-.05-.024-.067-.05-.093l-.012.009c.028,0,.066-.022.08-.012.053.038.014.071-.018.1Z" fill="#fff"/>
    <path id="Path_64" data-name="Path 64" d="M971.6,9072.264c.024-.016.054-.049.07-.042.065.024.028.064.005.1v0c.009-.062-.028-.066-.074-.061v0" fill="#fff"/>
    <path id="Path_65" data-name="Path 65" d="M971.748,9072.411c.029-.076-.035-.075-.078-.093v0l.071-.022c0,.038,0,.077.008.115Z" fill="#fff"/>
    <path id="Path_66" data-name="Path 66" d="M971.749,9072.412l.065-.063c.032.08-.052.032-.066.062v0" fill="#fff"/>
    <path id="Path_67" data-name="Path 67" d="M971.987,9072.486l-.075,0c.005-.017.011-.031.017-.05l.053.061Z" fill="#fff"/>
    <path id="Path_68" data-name="Path 68" d="M977.237,9033.895c.064.03.136.059.073.15-.059-.034-.132-.06-.073-.15" fill="#fff"/>
    <path id="Path_69" data-name="Path 69" d="M977.164,9033.828c.094-.046.073.03.08.076-.087.038-.075-.027-.08-.076" fill="#fff"/>
    <path id="Path_70" data-name="Path 70" d="M955.457,9032.1c.019.071.028.133-.077.077-.015-.065.01-.093.077-.077" fill="#fff"/>
    <path id="Path_71" data-name="Path 71" d="M968.461,9068.139c-.027,0-.046.048-.087.009s.005-.059.009-.087a.075.075,0,0,1,.078.078" fill="#fff"/>
    <path id="Path_72" data-name="Path 72" d="M968.554,9067.013c.023-.046.071-.065.1-.028a.094.094,0,0,1-.033.141l-.067-.112" fill="#fff"/>
    <path id="Path_73" data-name="Path 73" d="M967.347,9065.721c-.07-.095.024-.111.072-.15.068.094-.006.12-.072.15" fill="#fff"/>
    <path id="Path_74" data-name="Path 74" d="M967.9,9065.235c-.054-.106,0-.1.077-.077.012.063-.014.089-.077.077" fill="#fff"/>
    <path id="Path_75" data-name="Path 75" d="M967.277,9065.79c-.005-.027-.049-.046-.009-.086s.059,0,.088.007a.083.083,0,0,1-.079.079" fill="#fff"/>
  </g>
</svg>
