<svg xmlns="http://www.w3.org/2000/svg" width="442.842" height="281.104" viewBox="0 0 442.842 281.104">
  <g id="Group_42" data-name="Group 42" transform="translate(-1277.289 -3361.043)">
    <g id="Group_39" data-name="Group 39">
      <path id="Path_117" data-name="Path 117" d="M1317.683,3546.484H1289.7c9.08-26.972,17.95-53.317,26.82-79.663l-1.07-.5c-2.748,2.25-3.19,5.937-4.308,9.011-3.338,9.18-6.3,18.5-10.021,27.54-2.2,5.351-4.724,10.414-9.036,14.527-3.159,3.013-6.377,3.294-10.23,1.936-3.88-1.368-4.444-4.322-4.561-7.894-.183-5.562,2.316-10.358,4.022-15.359,4.86-14.25,9.9-28.439,14.9-42.64,2.527-7.173,4.961-14.384,7.736-21.461,3.636-9.27,11.051-13.4,20.6-13.54,15.942-.23,31.889-.124,47.833-.037a17.845,17.845,0,0,1,16.948,12.436c7.657,22.084,15.249,44.191,23.048,66.225,1.847,5.217,1.9,10.5,1.611,15.8-.261,4.856-4.2,6.035-8.131,6.945-3.894.9-6.826-.724-8.887-3.792-2.887-4.3-4.7-9.143-6.366-14.031q-6.031-17.729-12.088-35.447c-.122-.356-.474-.634-1.2-.792,6.4,27.069,15.426,53.392,22.834,80.6h-27c-1.433,1.689-.875,3.349-.877,4.861-.04,24.206.044,48.414-.087,72.62-.027,5.019-.617,10.024-4.719,13.862-5.865,5.488-16.516,3.474-19.593-3.942a21.4,21.4,0,0,1-1.688-8.354q.1-36.528.015-73.056c0-1.643.538-3.459-.962-5.139-1.943,1.627-1.437,3.695-1.439,5.548q-.04,36.746-.028,73.491c-.013,10.289-4.819,14.959-14.855,14.6a10.69,10.69,0,0,1-10.447-9.1,51.468,51.468,0,0,1-.846-9.006c.082-23.627.045-47.254.045-70.881Z" fill="#fff"/>
      <path id="Path_118" data-name="Path 118" d="M1347.57,3415.009c-13.808,1.557-27.981-13.736-27.911-26.067.072-12.668,14.557-27.948,28.9-27.9,13.181.045,28.479,14.149,28.192,28.327C1376.517,3401.075,1361.356,3416.65,1347.57,3415.009Z" fill="#fff"/>
    </g>
    <g id="Group_40" data-name="Group 40">
      <path id="Path_119" data-name="Path 119" d="M1682.606,3467.538c7.081,26.718,15.632,53.021,23.407,80.287h-27.027c-1.209,2.257-.8,4.025-.8,5.718q-.045,35.438-.017,70.875a24.15,24.15,0,0,1-1.924,10.095c-2.6,5.75-8.005,8.388-14.2,7.107-6.5-1.343-9.86-5.376-9.874-12.251-.049-25.074-.013-50.149-.043-75.223,0-1.643.5-3.463-1.064-5.068-2.249,1.278-1.51,3.338-1.513,5-.047,24.35,0,48.7-.059,73.049-.011,4.657-.531,9.3-4.581,12.483-4.154,3.261-9.022,2.734-13.663,1.759-4.09-.86-6.061-4.148-6.932-8.094a46.966,46.966,0,0,1-.886-10.312q.066-34.785.023-69.571v-5.325h-28.142l27.144-80.923a7.05,7.05,0,0,0-4.02,4.839c-3.366,9.346-6.357,18.83-9.885,28.112-2.657,6.993-5.533,13.891-11.376,19.177-3.079,2.785-5.981,2.975-9.506,1.774-3.557-1.211-4.576-4.085-5.029-7.379-.667-4.842,1.6-9.17,3.192-13.328,4.73-12.368,8.738-24.98,13.314-37.394,3.392-9.2,6.77-18.416,9.777-27.746,3.625-11.244,10.686-15.1,21.864-15.684,15.611-.809,31.3-.346,46.949-.144,7.8.1,13.555,4.218,16.519,11.274,7.085,16.863,12.009,34.512,18.234,51.693,2.65,7.314,5.529,14.535,7.043,22.222a25.792,25.792,0,0,1,.219,9.909c-.887,4.477-4.654,6.375-8.864,7.055-3.694.6-6.394-1.233-8.326-4.246-5.052-7.88-7.157-16.966-10.33-25.606-2.96-8.061-5.639-16.225-8.441-24.344Z" fill="#5b184a"/>
      <path id="Path_120" data-name="Path 120" d="M1681.807,3390.319c2.155,12.537-14.8,26.87-28.572,26.4-14.861-.51-28-12.361-27.989-26.22.013-14.414,14.132-27.429,29.253-27.9C1667.467,3362.193,1684.115,3377.34,1681.807,3390.319Z" fill="#5b184a"/>
    </g>
    <g id="Group_41" data-name="Group 41">
      <path id="Path_121" data-name="Path 121" d="M1529.033,3466.93c7.1,27.593,15.862,53.691,23.468,80.905h-27.338c-1.165,2.243-.76,4.01-.762,5.7q-.047,35.442-.029,70.883a47.134,47.134,0,0,1-.46,5.589c-1.128,9.421-7.555,13.6-16.987,11.167-5.191-1.338-8.6-6.491-8.6-13.911q-.028-36.53-.023-73.058c0-1.661.345-3.408-.541-5.138-1.886.441-1.955,1.678-1.889,2.995,1.261,25.2.342,50.407.478,75.61.057,10.538-6.78,15.9-17.052,14.141-6.258-1.072-9.594-6.281-9.607-15.263q-.048-32.614-.01-65.229v-13.213h-27.97l26.952-79.825c-2.625,1.168-4.328,4.928-6.141,10.225-4.2,12.254-7.354,24.953-14.541,36.008-.156.241-.226.54-.394.771-4.344,6-9.4,8.026-13.855,5.575-4.215-2.316-5.586-8.88-3.361-15.159,6.214-17.532,12.347-35.093,18.52-52.64,2.1-5.971,4.137-11.968,6.359-17.895,4.047-10.8,10.832-15.188,22.02-15.687,15.479-.69,31.014-.3,46.522-.121,8.373.1,14.419,4.543,17.394,12.125,4.463,11.374,8.255,23.013,12.266,34.563,3.735,10.756,7.232,21.6,11.133,32.292,1.962,5.379,1.7,10.826,1.525,16.3-.113,3.646-3.171,4.933-5.958,6.18-3.135,1.4-6.108,1.34-8.853-1.144-4.509-4.081-6.486-9.7-8.209-15.083-3.386-10.578-7.545-20.874-10.943-31.44C1531.559,3471.331,1531.8,3469.06,1529.033,3466.93Z" fill="#fff"/>
      <path id="Path_122" data-name="Path 122" d="M1528.685,3390.458c1.2,11.44-14.468,26.639-29.127,26.334-14.031-.292-27.582-13.721-27.657-26.314-.083-13.86,15.422-28.021,28.749-27.975C1514.993,3362.552,1529.985,3377.907,1528.685,3390.458Z" fill="#fff"/>
    </g>
  </g>
</svg>
